<svg version="1.1" id="Layer_1" xmlns="http://www.w3.org/2000/svg" xmlns:xlink="http://www.w3.org/1999/xlink" x="0px" y="0px"
	 width="100%" viewBox="0 0 810 810" enable-background="new 0 0 810 810" xml:space="preserve">
<path fill="#010101" opacity="1.000000" stroke="none" 
	d="
M371.000000,811.000000 
	C247.333328,811.000000 124.166664,811.000000 1.000000,811.000000 
	C1.000000,541.000000 1.000000,271.000000 1.000000,1.000000 
	C271.000000,1.000000 541.000000,1.000000 811.000000,1.000000 
	C811.000000,271.000000 811.000000,541.000000 811.000000,811.000000 
	C664.500000,811.000000 518.000000,811.000000 371.000000,811.000000 
M628.577576,500.036926 
	C628.781799,500.078674 628.986023,500.120422 629.463684,499.952057 
	C629.259766,499.909363 629.055847,499.866669 628.577576,500.036926 
M604.082275,255.575912 
	C604.293091,255.843689 604.564636,256.015869 604.975952,256.686279 
	C605.510986,256.896027 606.045959,257.105774 606.580994,257.315552 
	C606.084595,256.842438 605.588196,256.369324 604.901611,255.448914 
	C604.708069,255.166794 604.445618,254.982986 603.937805,254.617050 
	C603.817322,254.591049 603.696899,254.565048 603.576416,254.539062 
	C603.677185,254.737320 603.778015,254.935562 604.082275,255.575912 
M578.524109,254.985184 
	C578.482727,254.766464 578.441345,254.547760 578.399963,254.329041 
	C578.198914,254.495407 577.997803,254.661789 577.543152,255.060226 
	C577.754272,255.108597 577.965332,255.156952 578.524109,254.985184 
M608.530884,471.035767 
	C608.569519,471.238007 608.608215,471.440247 608.646851,471.642517 
	C608.830322,471.484436 609.013794,471.326385 609.475891,470.948730 
	C609.261658,470.900848 609.047424,470.852997 608.530884,471.035767 
M617.272583,472.927612 
	C617.150391,472.919159 617.028137,472.910736 616.603271,472.938904 
	C616.603271,472.938904 616.297607,472.936340 615.876404,472.514771 
	C615.167847,472.642456 614.459290,472.770111 613.750793,472.897766 
	C613.807739,473.188416 613.864685,473.479034 613.921631,473.769653 
	C614.648560,473.593567 615.375488,473.417450 616.305420,473.459747 
	C616.642944,473.537140 616.887390,473.405029 617.272583,472.927612 
M593.477539,243.976929 
	C593.442871,243.778351 593.408203,243.579788 593.373474,243.381210 
	C593.186401,243.534744 592.999329,243.688278 592.559387,244.064301 
	C592.761047,244.106995 592.962646,244.149689 593.477539,243.976929 
M320.051270,601.475647 
	C320.183838,601.501526 320.316376,601.527405 320.448944,601.553284 
	C320.358673,601.318665 320.268402,601.084106 319.965759,600.590881 
	C319.840790,600.570190 319.715851,600.549500 319.590881,600.528809 
	C319.674286,600.747925 319.757690,600.966980 320.051270,601.475647 
M640.048157,469.501953 
	C640.190063,469.523560 640.331909,469.545166 640.473755,469.566742 
	C640.382812,469.319641 640.291870,469.072540 639.868042,468.409729 
	C639.477478,468.388519 639.086853,468.367310 638.696289,468.346130 
	C639.072632,468.631012 639.449036,468.915894 640.048157,469.501953 
M637.000183,475.011414 
	C637.000183,475.011414 636.949280,474.958252 636.995239,474.272766 
	C636.005432,473.523438 635.015625,472.774078 633.990112,471.991730 
	C633.990112,471.991730 633.950256,471.963867 633.805481,471.572327 
	C633.466858,471.699402 633.128235,471.826477 632.353271,472.032562 
	C632.167175,472.242249 631.981140,472.451904 631.795105,472.661591 
	C632.501465,472.834106 633.207764,473.006622 634.454651,473.349854 
	C634.905090,473.925995 635.355469,474.502167 635.610901,475.355347 
	C635.978027,475.540131 636.345093,475.724945 637.200745,475.909576 
	C637.334473,475.823578 637.468201,475.737610 637.601929,475.651581 
	C637.414307,475.459015 637.226746,475.266418 637.000183,475.011414 
M638.259888,499.877808 
	C637.792419,500.192383 637.324890,500.506958 636.426025,501.170410 
	C636.497498,501.695770 636.568909,502.221161 636.640381,502.746521 
	C636.899841,502.680511 637.384155,502.609955 637.382935,502.549194 
	C637.373962,502.105103 637.267395,501.662994 637.747498,501.062225 
	C638.224915,500.757507 638.702271,500.452789 639.421082,499.921600 
	C639.224915,499.882782 639.028748,499.843964 638.259888,499.877808 
M315.909821,604.694214 
	C315.820465,604.653076 315.731079,604.611938 315.641693,604.570801 
	C315.743164,604.728149 315.844635,604.885498 315.986664,605.517639 
	C316.121796,605.781494 316.256927,606.045410 316.392090,606.309265 
	C316.275604,605.854736 316.159119,605.400269 315.909821,604.694214 
M588.391541,287.935242 
	C588.147461,288.114136 587.903381,288.292999 587.659302,288.471863 
	C588.157837,288.357941 588.656372,288.244049 589.423889,287.929749 
	C589.239136,287.901855 589.054382,287.873962 588.391541,287.935242 
M608.304016,280.843292 
	C608.127380,281.125427 607.950745,281.407593 607.774109,281.689728 
	C608.250366,281.517059 608.726685,281.344421 609.460327,280.924622 
	C609.246094,280.882751 609.031921,280.840912 608.304016,280.843292 
M302.507080,615.789673 
	C302.287323,615.204712 302.067596,614.619812 301.595337,614.012024 
	C301.595337,614.012024 301.342651,613.991638 300.932068,613.647705 
	C300.454803,614.185730 299.977509,614.723694 299.500244,615.261719 
	C300.002319,615.573242 300.504395,615.884827 301.223389,616.441162 
	C301.223389,616.441162 301.686798,616.490356 301.686798,616.490356 
	C301.686798,616.490356 302.067535,616.184692 302.507080,615.789673 
M581.301147,251.929642 
	C581.016663,252.358231 580.732117,252.786835 580.447632,253.215424 
	C581.032227,252.868713 581.616821,252.522003 582.489685,251.948853 
	C582.270081,251.900757 582.050476,251.852661 581.301147,251.929642 
M599.775085,288.089172 
	C599.953064,287.537964 600.131104,286.986755 600.309143,286.435547 
	C599.804199,286.891876 599.299255,287.348206 598.431946,288.028900 
	C598.472900,288.255920 598.513855,288.482910 598.554810,288.709930 
	C598.768250,288.544006 598.981628,288.378082 599.775085,288.089172 
M578.330688,261.015503 
	C578.174316,261.560883 578.017883,262.106262 577.861450,262.651581 
	C578.302246,262.152161 578.743042,261.652740 579.418274,260.955933 
	C579.237793,260.921295 579.057312,260.886658 578.330688,261.015503 
M607.983459,259.393402 
	C607.738220,259.434509 607.492981,259.475616 607.247742,259.516724 
	C607.427795,259.744263 607.607849,259.971832 607.925659,260.748413 
	C608.391113,260.967957 608.856506,261.187500 609.321960,261.407074 
	C608.950195,260.869568 608.578430,260.332031 607.983459,259.393402 
M584.765564,258.082916 
	C584.941162,257.536713 585.116760,256.990540 585.292358,256.444336 
	C584.791565,256.898224 584.290771,257.352081 583.448242,258.034119 
	C583.488098,258.252411 583.527893,258.470703 583.567749,258.688995 
	C583.776001,258.530334 583.984314,258.371704 584.765564,258.082916 
M593.334656,291.022308 
	C593.174988,291.571045 593.015320,292.119751 592.855591,292.668488 
	C593.294617,292.159790 593.733643,291.651093 594.399292,290.951111 
	C594.229126,290.922485 594.058899,290.893890 593.334656,291.022308 
M620.742615,499.384033 
	C620.134277,499.384033 619.525940,499.384033 618.917664,499.384033 
	C618.913330,499.540955 618.909058,499.697906 618.904724,499.854828 
	C619.530029,500.004486 620.155334,500.154144 621.323242,500.727936 
	C622.642517,501.075500 623.961792,501.423065 625.281128,501.770630 
	C625.364502,501.309601 625.447876,500.848602 625.531250,500.387573 
	C624.067505,500.197205 622.603821,500.006836 620.742615,499.384033 
M603.057739,457.483582 
	C603.195374,457.507812 603.332947,457.532043 603.470581,457.556274 
	C603.377380,457.315704 603.284180,457.075165 603.130920,456.118988 
	C602.823730,455.187683 602.516479,454.256409 602.209290,453.325104 
	C601.754150,453.521881 601.299011,453.718628 600.843872,453.915405 
	C601.507568,455.007446 602.171265,456.099487 603.057739,457.483582 
M589.143555,245.923691 
	C588.145203,246.588364 587.146851,247.253036 586.148499,247.917709 
	C586.470398,248.290985 586.792358,248.664261 587.114258,249.037537 
	C588.146118,248.089844 589.177979,247.142136 590.555603,245.963974 
	C590.515625,245.743530 590.475647,245.523071 590.435669,245.302612 
	C590.226379,245.464417 590.017029,245.626205 589.143555,245.923691 
M586.796753,292.416321 
	C586.394226,291.855865 585.991638,291.295441 585.589111,290.734985 
	C585.356323,290.969452 585.123474,291.203918 584.890686,291.438354 
	C585.563293,291.989685 586.235962,292.541016 586.911499,293.690552 
	C587.935669,294.176575 588.959900,294.662567 589.984070,295.148590 
	C590.207947,294.663757 590.431824,294.178925 590.655640,293.694092 
	C589.454468,293.440521 588.253235,293.186951 586.796753,292.416321 
M634.054321,505.466827 
	C634.186523,505.486237 634.318726,505.505676 634.450928,505.525085 
	C634.365173,505.295227 634.279358,505.065369 634.105103,504.168579 
	C633.110779,503.802826 632.116516,503.437073 631.122192,503.071320 
	C630.947632,503.590912 630.773132,504.110504 630.598633,504.630127 
	C631.677612,504.818573 632.756592,505.007019 634.054321,505.466827 
M596.026917,281.889404 
	C592.078369,282.256165 592.078369,282.256165 592.951294,286.211151 
	C594.541748,284.699036 595.870300,283.435913 597.487427,281.946838 
	C597.269043,281.899994 597.050720,281.853149 596.026917,281.889404 
M594.069580,495.444641 
	C594.197754,495.468170 594.325867,495.491699 594.454041,495.515198 
	C594.364441,495.290955 594.274780,495.066711 594.012024,494.177917 
	C592.694336,492.780640 591.376648,491.383362 590.058960,489.986053 
	C589.578186,490.524628 589.097473,491.063202 588.616699,491.601776 
	C590.360596,492.794983 592.104492,493.988190 594.069580,495.444641 
M614.845276,274.769409 
	C617.014832,271.320679 617.830017,267.761475 615.701843,262.916870 
	C614.955933,267.555725 614.372559,271.183502 613.351318,275.117798 
	C613.181580,275.613190 613.011780,276.108551 612.841980,276.603912 
	C613.316040,276.144073 613.790039,275.684235 614.845276,274.769409 
M604.288452,480.476990 
	C604.288452,484.060211 604.288452,487.643463 604.288452,491.176819 
	C602.822021,491.536774 601.721069,491.807007 600.620117,492.077271 
	C600.605591,492.412506 600.591125,492.747772 600.576660,493.083008 
	C602.803528,493.776978 605.030334,494.470947 606.980835,495.078766 
	C606.301208,489.489227 605.731323,484.802277 605.557861,479.695831 
	C605.557861,479.108734 605.557861,478.521637 605.557861,477.934570 
	C605.435791,477.937744 605.313660,477.940918 605.191589,477.944122 
	C605.062195,478.571625 604.932861,479.199127 604.288452,480.476990 
M433.821655,613.297058 
	C432.045044,613.008484 430.268402,612.719849 426.939331,612.179077 
	C427.503998,615.715210 427.669189,618.929138 428.765442,621.785706 
	C428.986053,622.360596 433.330109,622.345764 434.740723,621.260803 
	C437.526337,619.118103 437.275909,616.172913 433.821655,613.297058 
M343.216156,627.066162 
	C344.263123,627.790955 345.310120,628.515808 346.624695,629.425903 
	C347.287842,624.743042 347.835083,620.878784 348.382294,617.014587 
	C347.788849,616.846680 347.195374,616.678772 346.601929,616.510864 
	C345.428253,619.760742 344.254578,623.010559 343.216156,627.066162 
M303.424622,595.221436 
	C303.764862,595.048706 304.108612,594.881897 304.434784,594.685791 
	C304.450775,594.676208 304.354095,594.343079 304.240753,594.274048 
	C300.438507,591.958435 296.812531,593.064697 293.217102,595.058289 
	C296.406799,595.058289 299.596527,595.058289 303.424622,595.221436 
M646.381714,486.559784 
	C646.498047,484.631744 646.614441,482.703674 646.730835,480.775635 
	C646.229187,480.769348 645.727600,480.763092 645.226013,480.756805 
	C644.848267,483.846985 644.470520,486.937164 644.006104,490.736237 
	C644.903259,489.794464 645.319763,489.501160 645.531982,489.099823 
	C645.829285,488.537476 645.974487,487.894684 646.381714,486.559784 
M313.212036,616.138306 
	C313.941101,616.308594 314.670197,616.478943 315.871429,616.759521 
	C311.992096,612.086182 311.992096,612.086182 309.622650,614.118042 
	C310.658417,614.731689 311.635742,615.310730 313.212036,616.138306 
M322.321533,611.253418 
	C322.515350,609.398193 322.709167,607.542969 322.902985,605.687744 
	C322.314056,605.673340 321.725128,605.658875 321.136230,605.644409 
	C321.299652,607.507080 321.463074,609.369751 322.321533,611.253418 
M596.619263,248.493698 
	C597.981262,248.582962 599.343201,248.672226 600.705200,248.761475 
	C600.612427,248.053116 600.519653,247.344742 600.426880,246.636368 
	C599.117065,247.034943 597.807190,247.433533 596.619263,248.493698 
M587.065369,477.578400 
	C587.065369,480.455353 587.065369,483.332275 587.065369,486.209229 
	C587.492981,486.189972 587.920593,486.170685 588.348267,486.151428 
	C588.077148,483.118774 587.806091,480.086121 587.065369,477.578400 
M595.071533,472.996613 
	C594.718628,472.547852 594.365662,472.099091 594.012695,471.650269 
	C593.338196,473.413849 592.663696,475.177399 591.989197,476.940979 
	C592.346313,477.072205 592.703430,477.203400 593.060608,477.334625 
	C593.642212,476.089386 594.223877,474.844147 595.071533,472.996613 
M282.907837,619.270447 
	C282.483429,617.876892 282.059052,616.483337 281.634674,615.089844 
	C281.350067,615.143311 281.065491,615.196777 280.780884,615.250305 
	C281.158142,617.061707 281.535400,618.873108 281.912628,620.684509 
	C282.266815,620.432434 282.621002,620.180359 282.907837,619.270447 
M297.965302,632.332275 
	C299.368347,632.919312 300.771393,633.506287 302.174408,634.093323 
	C302.294250,633.487061 302.414124,632.880859 302.533966,632.274597 
	C301.200104,632.194824 299.866211,632.115112 297.965302,632.332275 
M594.370789,251.993729 
	C594.109192,252.156403 593.831116,252.298737 593.594055,252.491562 
	C593.496399,252.570984 593.486877,252.758789 593.437256,252.897308 
	C595.427063,253.097488 597.416870,253.297668 599.406677,253.497849 
	C599.446289,253.087067 599.485901,252.676285 599.525513,252.265488 
	C598.043274,252.151901 596.561035,252.038315 594.370789,251.993729 
M592.952271,482.023987 
	C592.754272,481.211395 592.556274,480.398773 592.358276,479.586182 
	C591.902832,479.810242 591.447388,480.034332 590.991943,480.258392 
	C591.616150,481.050598 592.240417,481.842773 592.952271,482.023987 
M286.979706,612.002075 
	C286.399841,611.943359 285.820007,611.884705 285.240143,611.825989 
	C285.435120,612.672974 285.630127,613.519897 285.825134,614.366882 
	C286.216034,613.794617 286.606934,613.222290 286.979706,612.002075 
M300.857300,607.425903 
	C300.055359,607.425903 299.253418,607.425903 298.451477,607.425903 
	C298.684418,607.996521 298.917358,608.567139 299.150299,609.137695 
	C299.869995,608.723938 300.589722,608.310181 300.857300,607.425903 
M607.304504,502.225739 
	C608.015808,502.358673 608.727112,502.491638 609.438416,502.624573 
	C609.558777,502.276703 609.679077,501.928802 609.799377,501.580933 
	C608.531433,500.999939 607.263428,500.418915 605.995422,499.837921 
	C605.834351,500.105591 605.673279,500.373230 605.512207,500.640900 
	C605.918152,501.080658 606.324158,501.520386 607.304504,502.225739 
M290.517395,628.462952 
	C290.417786,629.524963 290.318176,630.587036 290.218597,631.649048 
	C290.804413,631.573792 291.390259,631.498535 291.976074,631.423279 
	C291.679810,630.542603 291.383545,629.661987 290.517395,628.462952 
M615.561646,463.172485 
	C615.424683,463.850098 615.287720,464.527740 615.150696,465.205353 
	C616.084106,465.133636 617.017517,465.061920 619.386230,464.879913 
	C617.296387,463.941376 616.702942,463.674805 615.561646,463.172485 
M610.838135,254.195251 
	C611.208252,255.278458 611.578430,256.361664 611.948547,257.444885 
	C612.364868,257.172424 612.781250,256.899933 613.197571,256.627472 
	C612.626953,255.820511 612.056274,255.013565 610.838135,254.195251 
M569.613831,259.792267 
	C568.470886,260.602295 567.327881,261.412292 566.184937,262.222321 
	C566.550415,262.610840 566.915955,262.999359 567.281433,263.387909 
	C568.181946,262.356476 569.082458,261.325073 569.613831,259.792267 
M305.814178,632.655823 
	C307.076141,632.263733 308.338135,631.871582 309.600098,631.479492 
	C309.480225,631.119629 309.360352,630.759705 309.240479,630.399841 
	C307.957916,631.005432 306.675385,631.610962 305.814178,632.655823 
M575.599487,257.292480 
	C574.931152,257.013245 574.262817,256.734009 573.594482,256.454773 
	C573.518005,257.028595 573.441528,257.602386 573.365112,258.176208 
	C574.026733,258.079865 574.688416,257.983490 575.599487,257.292480 
M632.060120,511.010895 
	C632.218872,510.985138 632.386597,510.983093 632.533752,510.926971 
	C632.677185,510.872253 632.799500,510.762146 632.931091,510.676361 
	C631.988708,510.083740 631.046265,509.491089 630.103882,508.898468 
	C629.914917,509.234680 629.725952,509.570862 629.536987,509.907074 
	C630.176208,510.271362 630.815430,510.635651 632.060120,511.010895 
M599.157593,490.127533 
	C598.331116,489.797638 597.504639,489.467773 596.678162,489.137878 
	C596.602905,489.564789 596.527649,489.991730 596.452393,490.418671 
	C597.207642,490.471375 597.962952,490.524109 599.157593,490.127533 
M290.976685,622.554688 
	C290.452301,622.803833 289.927917,623.052979 289.403534,623.302185 
	C289.823425,623.732544 290.243286,624.162903 290.663177,624.593262 
	C290.910645,624.064941 291.158112,623.536560 290.976685,622.554688 
M573.469910,267.957764 
	C572.718750,267.410248 571.967651,266.862701 571.216492,266.315186 
	C570.977356,266.798218 570.738220,267.281281 570.499084,267.764313 
	C571.347107,267.967804 572.195129,268.171326 573.469910,267.957764 
M602.397095,462.802948 
	C602.812744,462.184235 603.228455,461.565521 603.644165,460.946808 
	C603.238159,460.800842 602.832214,460.654846 602.426208,460.508881 
	C602.203064,461.260956 601.979858,462.013062 602.397095,462.802948 
M296.819489,605.938232 
	C296.442871,605.346924 296.066223,604.755554 295.689606,604.164246 
	C295.262756,604.548157 294.835876,604.932068 294.409027,605.315979 
	C295.091736,605.694397 295.774414,606.072815 296.819489,605.938232 
M641.076172,483.005585 
	C640.953674,482.717987 640.847473,482.421295 640.696655,482.149414 
	C640.660400,482.084198 640.475769,482.101288 640.359314,482.080536 
	C640.225037,483.348450 640.090759,484.616364 639.956421,485.884247 
	C640.272278,485.909698 640.588074,485.935120 640.903931,485.960571 
	C640.971802,485.193848 641.039673,484.427155 641.076172,483.005585 
M624.383118,467.959442 
	C623.711426,468.154541 623.039673,468.349640 622.367920,468.544739 
	C622.505615,468.829193 622.643250,469.113647 622.780884,469.398102 
	C623.516418,468.922211 624.252014,468.446320 624.383118,467.959442 
M321.489868,616.620605 
	C320.995636,617.392578 320.501404,618.164612 320.007172,618.936584 
	C320.368134,619.099792 320.729095,619.263000 321.090088,619.426270 
	C321.353638,618.640991 321.617188,617.855774 321.489868,616.620605 
M318.766693,597.612976 
	C318.155304,597.184204 317.543915,596.755371 316.932495,596.326599 
	C316.765198,596.692505 316.597931,597.058411 316.430634,597.424316 
	C317.199036,597.684570 317.967468,597.944885 318.766693,597.612976 
M617.578735,469.601593 
	C618.320312,469.733246 619.061890,469.864929 619.803467,469.996613 
	C619.798279,469.673584 619.793091,469.350555 619.787964,469.027557 
	C619.194885,469.098602 618.601807,469.169678 617.578735,469.601593 
M290.490845,609.371521 
	C290.508820,608.812256 290.550293,608.251221 290.506409,607.696838 
	C290.502289,607.644653 289.960754,607.635071 289.668732,607.605713 
	C289.765289,608.153687 289.861847,608.701599 290.490845,609.371521 
M303.771851,628.433228 
	C303.839417,628.066528 303.906952,627.699768 303.974518,627.333069 
	C303.484161,627.496277 302.993805,627.659485 302.503448,627.822693 
	C302.769836,628.091248 303.036255,628.359802 303.771851,628.433228 
M602.838989,244.422806 
	C602.470947,243.837570 602.102966,243.252335 601.734985,242.667114 
	C601.541931,242.860046 601.153564,243.175415 601.185974,243.227097 
	C601.535522,243.784927 601.951294,244.301270 602.838989,244.422806 
M625.560303,507.651306 
	C625.014893,507.508484 624.469543,507.365662 623.924194,507.222809 
	C623.856873,507.491638 623.789551,507.760468 623.722168,508.029266 
	C624.345398,508.095276 624.968567,508.161316 625.560303,507.651306 
M636.836548,492.021423 
	C637.367432,492.130646 637.898254,492.239838 638.429199,492.349060 
	C638.428772,492.071289 638.448425,491.552979 638.424927,491.551025 
	C637.870361,491.504761 637.311218,491.514130 636.836548,492.021423 
M310.030701,625.181458 
	C310.137207,624.673950 310.243713,624.166382 310.350250,623.658875 
	C310.076843,623.660583 309.567322,623.640808 309.564911,623.667236 
	C309.517120,624.191895 309.528046,624.721985 310.030701,625.181458 
M610.917419,265.367035 
	C610.802551,265.252625 610.704102,265.085205 610.566956,265.042664 
	C610.477478,265.014923 610.233398,265.160065 610.226257,265.242279 
	C610.148865,266.138855 610.104553,267.038239 610.051208,267.936890 
	C610.278381,267.960358 610.505554,267.983795 610.732727,268.007263 
	C610.832153,267.316559 610.931519,266.625885 610.917419,265.367035 
M603.445679,284.391357 
	C603.097107,284.750275 602.748474,285.109222 602.399841,285.468140 
	C602.723083,285.761658 603.046326,286.055145 603.369568,286.348633 
	C603.524841,285.836761 603.680115,285.324890 603.445679,284.391357 
M644.626282,478.442566 
	C644.929077,478.059875 645.231873,477.677216 645.534668,477.294525 
	C645.160339,477.098694 644.786011,476.902863 644.411682,476.707062 
	C644.355530,477.157745 644.299377,477.608459 644.626282,478.442566 
M287.593781,606.827393 
	C287.125641,606.956787 286.657501,607.086182 286.189362,607.215576 
	C286.356140,607.582214 286.522919,607.948792 286.689697,608.315430 
	C287.010895,607.997803 287.332092,607.680237 287.593781,606.827393 
M611.495300,475.710968 
	C611.761108,475.993195 612.026978,476.275391 612.292786,476.557587 
	C612.410217,476.440552 612.638855,476.232239 612.628723,476.219910 
	C612.384033,475.921814 612.113892,475.644684 611.495300,475.710968 
M634.561951,464.756927 
	C634.165222,464.741699 633.768494,464.726471 633.371765,464.711273 
	C633.380432,464.873810 633.372253,465.174652 633.400330,465.178070 
	C633.789124,465.225464 634.182983,465.231995 634.561951,464.756927 
M636.439270,506.694672 
	C636.714722,506.982147 636.990234,507.269592 637.265747,507.557007 
	C637.379761,507.446930 637.598999,507.247131 637.592651,507.239685 
	C637.336914,506.939758 637.060791,506.657196 636.439270,506.694672 
M629.807556,464.046356 
	C630.292480,463.919373 630.777405,463.792358 631.262329,463.665344 
	C631.146912,463.420410 631.031555,463.175446 630.916199,462.930511 
	C630.364258,463.265472 629.812378,463.600433 629.807556,464.046356 
M596.540283,242.221313 
	C596.271179,241.937027 596.005188,241.649307 595.718689,241.383850 
	C595.709412,241.375259 595.489990,241.593475 595.368469,241.705948 
	C595.639709,241.990112 595.910950,242.274277 596.540283,242.221313 
M312.712433,629.699341 
	C313.032349,629.462646 313.352234,629.225952 313.672119,628.989258 
	C313.482208,628.792847 313.292297,628.596436 313.102386,628.400085 
	C312.843567,628.706970 312.584747,629.013855 312.712433,629.699341 
M281.016479,607.764404 
	C281.143463,608.175659 281.270416,608.586975 281.397400,608.998291 
	C281.577362,608.833191 281.938385,608.577820 281.908264,608.517395 
	C281.688995,608.077637 281.391083,607.677124 281.016479,607.764404 
M604.314575,276.327881 
	C604.013245,276.556580 603.711914,276.785278 603.410645,277.014038 
	C603.586365,277.197937 603.762085,277.381836 603.937866,277.565674 
	C604.182800,277.274231 604.427734,276.982788 604.314575,276.327881 
M287.590210,627.356628 
	C287.359985,627.055847 287.129761,626.755127 286.899567,626.454346 
	C286.716492,626.635071 286.533417,626.815796 286.350342,626.996521 
	C286.638611,627.232117 286.926880,627.467773 287.590210,627.356628 
M588.601257,255.291550 
	C588.331177,255.011154 588.064331,254.727264 587.777222,254.465500 
	C587.767639,254.456726 587.553955,254.671707 587.435425,254.782394 
	C587.705750,255.063873 587.976135,255.345352 588.601257,255.291550 
M317.611877,625.303040 
	C317.404968,625.015320 317.198059,624.727539 316.991150,624.439819 
	C316.802582,624.622864 316.614014,624.805847 316.425415,624.988892 
	C316.700623,625.211426 316.975830,625.433960 317.611877,625.303040 
M599.094604,464.508362 
	C599.266174,464.692993 599.437683,464.877655 599.609192,465.062317 
	C599.683777,464.781250 599.758362,464.500214 599.832947,464.219116 
	C599.612671,464.181244 599.392334,464.143372 599.094604,464.508362 
M309.578064,618.959351 
	C309.850281,619.113037 310.122467,619.266785 310.394684,619.420471 
	C310.493164,619.144592 310.591644,618.868652 310.690125,618.592773 
	C310.287323,618.554321 309.884552,618.515930 309.578064,618.959351 
M590.007507,470.355011 
	C589.871887,470.108368 589.736328,469.861755 589.600708,469.615112 
	C589.416504,469.929657 589.232300,470.244171 589.048096,470.558685 
	C589.335327,470.658539 589.622498,470.758362 590.007507,470.355011 
M600.539124,498.582672 
	C600.477905,498.819580 600.416687,499.056519 600.355530,499.293396 
	C600.509583,499.138580 600.663696,498.983734 600.539124,498.582672 
M631.862610,497.780884 
	C631.634094,497.782623 631.405579,497.784393 631.177063,497.786133 
	C631.179749,497.934021 631.165833,498.207520 631.187683,498.210449 
	C631.415466,498.240540 631.648926,498.227112 631.862610,497.780884 
M307.360107,590.523499 
	C307.159821,590.471008 306.959534,590.418457 306.759247,590.365967 
	C306.888184,590.494995 307.017151,590.624084 307.360107,590.523499 
M605.464355,283.377716 
	C605.521057,283.168549 605.577759,282.959412 605.634521,282.750275 
	C605.494385,282.886932 605.354309,283.023590 605.464355,283.377716 
M307.152069,626.764343 
	C307.095734,626.592407 307.039429,626.420532 306.983124,626.248596 
	C306.928162,626.421204 306.873199,626.593750 307.152069,626.764343 
M292.811707,609.789612 
	C292.611450,609.856689 292.411163,609.923828 292.210907,609.990906 
	C292.411316,610.053406 292.611694,610.115845 292.811707,609.789612 
M284.735626,624.176025 
	C284.625732,624.027832 284.515839,623.879639 284.405945,623.731445 
	C284.428223,623.934875 284.450500,624.138306 284.735626,624.176025 
M303.841888,589.225037 
	C303.901886,589.405884 303.961853,589.586670 304.021851,589.767517 
	C304.079803,589.586304 304.137787,589.405090 303.841888,589.225037 
M566.183777,266.295868 
	C566.399841,266.293579 566.615967,266.291260 566.832031,266.288940 
	C566.829041,266.150879 566.841797,265.895721 566.820557,265.892853 
	C566.609619,265.864349 566.393066,265.877594 566.183777,266.295868 
M317.726562,609.845825 
	C317.603271,609.961731 317.480011,610.077576 317.356720,610.193420 
	C317.480530,610.173523 317.604370,610.153564 317.726562,609.845825 
M612.810974,466.204681 
	C612.810486,466.421600 612.809998,466.638519 612.809509,466.855438 
	C612.946411,466.849518 613.197388,466.862671 613.202087,466.834656 
	C613.236694,466.627563 613.222168,466.412262 612.810974,466.204681 
M286.442261,601.524475 
	C286.218292,601.468201 285.994324,601.411987 285.770355,601.355774 
	C285.915649,601.498779 286.060974,601.641724 286.442261,601.524475 
M643.196655,474.134735 
	C643.395569,474.068268 643.594482,474.001770 643.793396,473.935272 
	C643.593994,473.872284 643.394592,473.809296 643.196655,474.134735 
M316.261322,613.165039 
	C316.417908,613.113892 316.574493,613.062805 316.731079,613.011658 
	C316.573853,612.961304 316.416626,612.911011 316.261322,613.165039 
M595.819702,469.231934 
	C595.876404,469.403900 595.933044,469.575836 595.989685,469.747772 
	C596.043823,469.575775 596.098022,469.403748 595.819702,469.231934 
M615.768677,504.801666 
	C615.949646,504.660553 616.130615,504.519440 616.311584,504.378296 
	C616.055237,504.410950 615.798950,504.443604 615.768677,504.801666 
M303.855835,610.220276 
	C303.917755,610.408142 303.979706,610.595947 304.041626,610.783813 
	C304.101013,610.596191 304.160400,610.408508 303.855835,610.220276 
M292.192230,603.739014 
	C292.336578,603.922791 292.480957,604.106628 292.625336,604.290405 
	C292.589813,604.028442 292.554291,603.766418 292.192230,603.739014 
M608.580933,252.502274 
	C608.832764,252.570770 609.084656,252.639267 609.336487,252.707764 
	C609.172546,252.541199 609.008667,252.374619 608.580933,252.502274 
M597.754150,467.160675 
	C597.625793,466.987061 597.497498,466.813446 597.369080,466.639832 
	C597.394958,466.878784 597.420776,467.117737 597.754150,467.160675 
M596.360779,496.478760 
	C596.360779,496.478760 596.548035,496.579407 596.548035,496.579407 
	C596.548035,496.579407 596.517456,496.378021 596.360779,496.478760 
M308.485870,596.609558 
	C308.485870,596.609558 308.397400,596.471313 308.485870,596.609558 
M306.380035,595.479614 
	C306.380035,595.479614 306.553894,595.579102 306.553894,595.579102 
	C306.553894,595.579102 306.529449,595.382324 306.380035,595.479614 
M282.483459,604.595886 
	C282.483459,604.595886 282.419342,604.486023 282.483459,604.595886 
M313.481995,600.617737 
	C313.481995,600.617737 313.407196,600.493896 313.481995,600.617737 
M314.525574,602.339783 
	C314.525574,602.339783 314.418640,602.544128 314.418640,602.544128 
	C314.418640,602.544128 314.641449,602.507874 314.525574,602.339783 
M288.624725,602.524963 
	C288.624725,602.524963 288.433746,602.418945 288.433746,602.418945 
	C288.433746,602.418945 288.463165,602.632385 288.624725,602.524963 
M287.517395,619.378357 
	C287.517395,619.378357 287.412292,619.564880 287.412292,619.564880 
	C287.412292,619.564880 287.620880,619.537415 287.517395,619.378357 
M294.528412,631.354919 
	C294.528412,631.354919 294.416534,631.560730 294.416534,631.560730 
	C294.416534,631.560730 294.651276,631.526428 294.528412,631.354919 
M315.607513,627.502686 
	C315.607513,627.502686 315.423828,627.394287 315.423828,627.394287 
	C315.423828,627.394287 315.447418,627.604370 315.607513,627.502686 
M297.503876,627.435120 
	C297.503876,627.435120 297.551514,627.521606 297.503876,627.435120 
M295.372345,626.484375 
	C295.372345,626.484375 295.512390,626.394836 295.372345,626.484375 
M293.380310,625.482971 
	C293.380310,625.482971 293.518463,625.394592 293.380310,625.482971 
M319.655640,621.513794 
	C319.655640,621.513794 319.434052,621.393555 319.434052,621.393555 
	C319.434052,621.393555 319.471313,621.645813 319.655640,621.513794 
M313.512238,621.437561 
	C313.512238,621.437561 313.552155,621.515320 313.512238,621.437561 
M312.488129,619.597290 
	C312.488129,619.597290 312.412689,619.475769 312.488129,619.597290 
M286.480804,617.611389 
	C286.480804,617.611389 286.400482,617.482483 286.480804,617.611389 
M306.504669,611.334900 
	C306.504669,611.334900 306.375336,611.574097 306.375336,611.574097 
	C306.375336,611.574097 306.649506,611.533081 306.504669,611.334900 
M296.491180,611.612915 
	C296.491180,611.612915 296.588165,611.453247 296.588165,611.453247 
	C296.588165,611.453247 296.399231,611.471863 296.491180,611.612915 
M294.632660,610.520325 
	C294.632660,610.520325 294.456360,610.421692 294.456360,610.421692 
	C294.456360,610.421692 294.482788,610.618774 294.632660,610.520325 
M642.690918,471.544586 
	C642.690918,471.544586 642.395203,471.402161 642.395203,471.402161 
	C642.395203,471.402161 642.459900,471.730103 642.690918,471.544586 
M609.385315,468.478363 
	C609.385315,468.478363 609.592896,468.590210 609.592896,468.590210 
	C609.592896,468.590210 609.559265,468.370453 609.385315,468.478363 
M591.362854,466.485779 
	C591.362854,466.485779 591.555420,466.594696 591.555420,466.594696 
	C591.555420,466.594696 591.526611,466.372742 591.362854,466.485779 
M596.488037,459.678894 
	C596.488037,459.678894 596.609863,459.444641 596.609863,459.444641 
	C596.609863,459.444641 596.349487,459.487671 596.488037,459.678894 
M598.768372,457.540527 
	C598.607971,457.526794 598.447571,457.513062 598.287170,457.499298 
	C598.360474,457.584778 598.433838,457.670288 598.768372,457.540527 
M596.374695,289.476898 
	C596.374695,289.476898 596.590088,289.589783 596.590088,289.589783 
	C596.590088,289.589783 596.553101,289.365784 596.374695,289.476898 
M609.662476,270.532227 
	C609.662476,270.532227 609.432983,270.412354 609.432983,270.412354 
	C609.432983,270.412354 609.475342,270.671417 609.662476,270.532227 
M575.492737,263.563568 
	C575.492737,263.563568 575.446594,263.478638 575.492737,263.563568 
M581.367615,259.476044 
	C581.367615,259.476044 581.602417,259.596375 581.602417,259.596375 
	C581.602417,259.596375 581.560120,259.354340 581.367615,259.476044 
M571.693481,259.530823 
	C571.693481,259.530823 571.440125,259.407745 571.440125,259.407745 
	C571.440125,259.407745 571.492554,259.679749 571.693481,259.530823 
M616.514587,498.407501 
	C616.514587,498.407501 616.585083,498.523468 616.514587,498.407501 
M603.469543,249.639877 
	C603.469543,249.639877 603.578735,249.441757 603.578735,249.441757 
	C603.578735,249.441757 603.351074,249.473785 603.469543,249.639877 
M584.479187,250.607742 
	C584.479187,250.607742 584.585205,250.415070 584.585205,250.415070 
	C584.585205,250.415070 584.379761,250.444611 584.479187,250.607742 
M311.395294,592.481140 
	C311.395294,592.481140 311.530884,592.398865 311.395294,592.481140 
M627.618713,508.519257 
	C627.618713,508.519257 627.482056,508.606232 627.618713,508.519257 
M621.640503,506.515106 
	C621.640503,506.515106 621.461060,506.414917 621.461060,506.414917 
	C621.461060,506.414917 621.488220,506.615814 621.640503,506.515106 
M619.622498,505.519623 
	C619.622498,505.519623 619.482300,505.609772 619.622498,505.519623 
M613.533020,503.367615 
	C613.533020,503.367615 613.431580,503.548553 613.431580,503.548553 
	C613.431580,503.548553 613.640442,503.520813 613.533020,503.367615 
M611.484924,502.618744 
	C611.484924,502.618744 611.582458,502.453278 611.582458,502.453278 
	C611.582458,502.453278 611.390076,502.474701 611.484924,502.618744 
M314.619720,594.520020 
	C314.619720,594.520020 314.447449,594.421326 314.447449,594.421326 
	C314.447449,594.421326 314.471588,594.616516 314.619720,594.520020 
M633.535095,497.347412 
	C633.535095,497.347412 633.415100,497.575653 633.415100,497.575653 
	C633.415100,497.575653 633.673157,497.534180 633.535095,497.347412 
M614.587708,497.516510 
	C614.587708,497.516510 614.480164,497.579407 614.587708,497.516510 
M598.614075,497.516876 
	C598.614075,497.516876 598.488892,497.593414 598.614075,497.516876 
M643.380371,492.473145 
	C643.380371,492.473145 643.548340,492.570465 643.548340,492.570465 
	C643.548340,492.570465 643.525146,492.375153 643.380371,492.473145 
M639.518738,489.402771 
	C639.518738,489.402771 639.596680,489.530365 639.518738,489.402771 
M593.512024,485.350525 
	C593.512024,485.350525 593.384583,485.591644 593.384583,485.591644 
	C593.384583,485.591644 593.648682,485.549530 593.512024,485.350525 
M639.441650,478.483612 
	C639.441650,478.483612 639.519836,478.441742 639.441650,478.483612 
M610.517456,478.396057 
	C610.517456,478.396057 610.586121,478.511871 610.517456,478.396057 
M590.472290,253.619659 
	C590.472290,253.619659 590.570190,253.450836 590.570190,253.450836 
	C590.570190,253.450836 590.373474,253.474091 590.472290,253.619659 
M606.521912,475.366516 
	C606.521912,475.366516 606.411682,475.568817 606.411682,475.568817 
	C606.411682,475.568817 606.635559,475.536163 606.521912,475.366516 
M588.435547,474.497253 
	C588.435547,474.497253 588.521912,474.449738 588.435547,474.497253 
z"/>
<path fill="#232323" opacity="1.000000" stroke="none" 
	d="
M434.118896,613.542114 
	C437.275909,616.172913 437.526337,619.118103 434.740723,621.260803 
	C433.330109,622.345764 428.986053,622.360596 428.765442,621.785706 
	C427.669189,618.929138 427.503998,615.715210 426.939331,612.179077 
	C430.268402,612.719849 432.045044,613.008484 434.118896,613.542114 
z"/>
<path fill="#E5E5E5" opacity="1.000000" stroke="none" 
	d="
M343.148529,626.663330 
	C344.254578,623.010559 345.428253,619.760742 346.601929,616.510864 
	C347.195374,616.678772 347.788849,616.846680 348.382294,617.014587 
	C347.835083,620.878784 347.287842,624.743042 346.624695,629.425903 
	C345.310120,628.515808 344.263123,627.790955 343.148529,626.663330 
z"/>
<path fill="#131313" opacity="1.000000" stroke="none" 
	d="
M605.161499,480.115326 
	C605.731323,484.802277 606.301208,489.489227 606.980835,495.078766 
	C605.030334,494.470947 602.803528,493.776978 600.576660,493.083008 
	C600.591125,492.747772 600.605591,492.412506 600.620117,492.077271 
	C601.721069,491.807007 602.822021,491.536774 604.288452,491.176819 
	C604.288452,487.643463 604.288452,484.060211 604.634521,480.225220 
	C604.980591,479.973450 605.161499,480.115326 605.161499,480.115326 
z"/>
<path fill="#141414" opacity="1.000000" stroke="none" 
	d="
M613.789185,274.811310 
	C614.372559,271.183502 614.955933,267.555725 615.701843,262.916870 
	C617.830017,267.761475 617.014832,271.320679 614.434692,274.895081 
	C614.024109,275.020752 613.789185,274.811310 613.789185,274.811310 
z"/>
<path fill="#111111" opacity="1.000000" stroke="none" 
	d="
M303.105438,595.139893 
	C299.596527,595.058289 296.406799,595.058289 293.217102,595.058289 
	C296.812531,593.064697 300.438507,591.958435 304.240753,594.274048 
	C304.354095,594.343079 304.450775,594.676208 304.434784,594.685791 
	C304.108612,594.881897 303.764862,595.048706 303.105438,595.139893 
z"/>
<path fill="#131313" opacity="1.000000" stroke="none" 
	d="
M646.283203,486.923035 
	C645.974487,487.894684 645.829285,488.537476 645.531982,489.099823 
	C645.319763,489.501160 644.903259,489.794464 644.006104,490.736237 
	C644.470520,486.937164 644.848267,483.846985 645.226013,480.756805 
	C645.727600,480.763092 646.229187,480.769348 646.730835,480.775635 
	C646.614441,482.703674 646.498047,484.631744 646.283203,486.923035 
z"/>
<path fill="#111111" opacity="1.000000" stroke="none" 
	d="
M312.912537,616.014038 
	C311.635742,615.310730 310.658417,614.731689 309.622650,614.118042 
	C311.992096,612.086182 311.992096,612.086182 315.871429,616.759521 
	C314.670197,616.478943 313.941101,616.308594 312.912537,616.014038 
z"/>
<path fill="#111111" opacity="1.000000" stroke="none" 
	d="
M321.973999,611.242920 
	C321.463074,609.369751 321.299652,607.507080 321.136230,605.644409 
	C321.725128,605.658875 322.314056,605.673340 322.902985,605.687744 
	C322.709167,607.542969 322.515350,609.398193 321.973999,611.242920 
z"/>
<path fill="#131313" opacity="1.000000" stroke="none" 
	d="
M593.848389,495.181396 
	C592.104492,493.988190 590.360596,492.794983 588.616699,491.601776 
	C589.097473,491.063202 589.578186,490.524628 590.058960,489.986053 
	C591.376648,491.383362 592.694336,492.780640 594.011902,494.592468 
	C594.011780,495.007050 593.848389,495.181396 593.848389,495.181396 
z"/>
<path fill="#141414" opacity="1.000000" stroke="none" 
	d="
M597.198853,282.172791 
	C595.870300,283.435913 594.541748,284.699036 592.951294,286.211151 
	C592.078369,282.256165 592.078369,282.256165 596.519165,281.941589 
	C597.011475,281.993744 597.198853,282.172791 597.198853,282.172791 
z"/>
<path fill="#141414" opacity="1.000000" stroke="none" 
	d="
M596.558350,248.162903 
	C597.807190,247.433533 599.117065,247.034943 600.426880,246.636368 
	C600.519653,247.344742 600.612427,248.053116 600.705200,248.761475 
	C599.343201,248.672226 597.981262,248.582962 596.558350,248.162903 
z"/>
<path fill="#131313" opacity="1.000000" stroke="none" 
	d="
M587.300171,477.315918 
	C587.806091,480.086121 588.077148,483.118774 588.348267,486.151428 
	C587.920593,486.170685 587.492981,486.189972 587.065369,486.209229 
	C587.065369,483.332275 587.065369,480.455353 587.300171,477.315918 
z"/>
<path fill="#131313" opacity="1.000000" stroke="none" 
	d="
M594.938538,473.297760 
	C594.223877,474.844147 593.642212,476.089386 593.060608,477.334625 
	C592.703430,477.203400 592.346313,477.072205 591.989197,476.940979 
	C592.663696,475.177399 593.338196,473.413849 594.012695,471.650269 
	C594.365662,472.099091 594.718628,472.547852 594.938538,473.297760 
z"/>
<path fill="#131313" opacity="1.000000" stroke="none" 
	d="
M633.835632,505.195465 
	C632.756592,505.007019 631.677612,504.818573 630.598633,504.630127 
	C630.773132,504.110504 630.947632,503.590912 631.122192,503.071320 
	C632.116516,503.437073 633.110779,503.802826 634.057495,504.589630 
	C634.009827,505.010681 633.835632,505.195465 633.835632,505.195465 
z"/>
<path fill="#111111" opacity="1.000000" stroke="none" 
	d="
M282.941528,619.599365 
	C282.621002,620.180359 282.266815,620.432434 281.912659,620.684509 
	C281.535400,618.873108 281.158142,617.061707 280.780884,615.250305 
	C281.065491,615.196777 281.350067,615.143311 281.634674,615.089844 
	C282.059052,616.483337 282.483429,617.876892 282.941528,619.599365 
z"/>
<path fill="#111111" opacity="1.000000" stroke="none" 
	d="
M298.248840,632.183838 
	C299.866211,632.115112 301.200104,632.194824 302.533966,632.274597 
	C302.414124,632.880859 302.294250,633.487061 302.174408,634.093323 
	C300.771393,633.506287 299.368347,632.919312 298.248840,632.183838 
z"/>
<path fill="#141414" opacity="1.000000" stroke="none" 
	d="
M594.724792,251.959229 
	C596.561035,252.038315 598.043274,252.151901 599.525513,252.265488 
	C599.485901,252.676285 599.446289,253.087067 599.406677,253.497849 
	C597.416870,253.297668 595.427063,253.097488 593.437256,252.897308 
	C593.486877,252.758789 593.496399,252.570984 593.594055,252.491562 
	C593.831116,252.298737 594.109192,252.156403 594.724792,251.959229 
z"/>
<path fill="#131313" opacity="1.000000" stroke="none" 
	d="
M592.908447,482.329468 
	C592.240417,481.842773 591.616150,481.050598 590.991943,480.258392 
	C591.447388,480.034332 591.902832,479.810242 592.358276,479.586182 
	C592.556274,480.398773 592.754272,481.211395 592.908447,482.329468 
z"/>
<path fill="#111111" opacity="1.000000" stroke="none" 
	d="
M286.988770,612.326050 
	C286.606934,613.222290 286.216034,613.794617 285.825134,614.366882 
	C285.630127,613.519897 285.435120,612.672974 285.240143,611.826050 
	C285.820007,611.884705 286.399841,611.943359 286.988770,612.326050 
z"/>
<path fill="#111111" opacity="1.000000" stroke="none" 
	d="
M301.083374,607.661133 
	C300.589722,608.310181 299.869995,608.723938 299.150299,609.137695 
	C298.917358,608.567139 298.684418,607.996521 298.451477,607.425903 
	C299.253418,607.425903 300.055359,607.425903 301.083374,607.661133 
z"/>
<path fill="#131313" opacity="1.000000" stroke="none" 
	d="
M607.017334,502.092957 
	C606.324158,501.520386 605.918152,501.080658 605.512207,500.640900 
	C605.673279,500.373230 605.834351,500.105591 605.995422,499.837921 
	C607.263428,500.418915 608.531433,500.999939 609.799377,501.580933 
	C609.679077,501.928802 609.558777,502.276703 609.438416,502.624573 
	C608.727112,502.491638 608.015808,502.358673 607.017334,502.092957 
z"/>
<path fill="#141414" opacity="1.000000" stroke="none" 
	d="
M587.052002,292.933380 
	C588.253235,293.186951 589.454468,293.440521 590.655640,293.694092 
	C590.431824,294.178925 590.207947,294.663757 589.984070,295.148590 
	C588.959900,294.662567 587.935669,294.176575 586.946899,293.352600 
	C586.982300,293.014679 587.052002,292.933380 587.052002,292.933380 
z"/>
<path fill="#111111" opacity="1.000000" stroke="none" 
	d="
M290.802307,628.622131 
	C291.383545,629.661987 291.679810,630.542603 291.976074,631.423279 
	C291.390259,631.498535 290.804413,631.573792 290.218597,631.649048 
	C290.318176,630.587036 290.417786,629.524963 290.802307,628.622131 
z"/>
<path fill="#131313" opacity="1.000000" stroke="none" 
	d="
M615.835571,463.290375 
	C616.702942,463.674805 617.296387,463.941376 619.386230,464.879913 
	C617.017517,465.061920 616.084106,465.133636 615.150696,465.205353 
	C615.287720,464.527740 615.424683,463.850098 615.835571,463.290375 
z"/>
<path fill="#141414" opacity="1.000000" stroke="none" 
	d="
M611.161865,254.200928 
	C612.056274,255.013565 612.626953,255.820511 613.197571,256.627472 
	C612.781250,256.899933 612.364868,257.172424 611.948547,257.444885 
	C611.578430,256.361664 611.208252,255.278458 611.161865,254.200928 
z"/>
<path fill="#141414" opacity="1.000000" stroke="none" 
	d="
M590.209839,246.194443 
	C589.177979,247.142136 588.146118,248.089844 587.114258,249.037537 
	C586.792358,248.664261 586.470398,248.290985 586.148499,247.917709 
	C587.146851,247.253036 588.145203,246.588364 589.575317,245.958282 
	C590.007141,245.992859 590.209839,246.194443 590.209839,246.194443 
z"/>
<path fill="#131313" opacity="1.000000" stroke="none" 
	d="
M602.834961,457.191528 
	C602.171265,456.099487 601.507568,455.007446 600.843872,453.915405 
	C601.299011,453.718628 601.754150,453.521881 602.209290,453.325104 
	C602.516479,454.256409 602.823730,455.187683 603.069824,456.563965 
	C603.008789,457.008911 602.834961,457.191528 602.834961,457.191528 
z"/>
<path fill="#131313" opacity="1.000000" stroke="none" 
	d="
M621.140137,499.816467 
	C622.603821,500.006836 624.067505,500.197205 625.531250,500.387573 
	C625.447876,500.848602 625.364502,501.309601 625.281128,501.770630 
	C623.961792,501.423065 622.642517,501.075500 621.139160,500.392120 
	C620.955139,500.056305 621.140137,499.816498 621.140137,499.816467 
z"/>
<path fill="#141414" opacity="1.000000" stroke="none" 
	d="
M569.798401,260.042969 
	C569.082458,261.325073 568.181946,262.356476 567.281433,263.387909 
	C566.915955,262.999359 566.550415,262.610840 566.184937,262.222321 
	C567.327881,261.412292 568.470886,260.602295 569.798401,260.042969 
z"/>
<path fill="#111111" opacity="1.000000" stroke="none" 
	d="
M305.603516,632.436157 
	C306.675385,631.610962 307.957916,631.005432 309.240479,630.399841 
	C309.360352,630.759705 309.480225,631.119629 309.600098,631.479492 
	C308.338135,631.871582 307.076141,632.263733 305.603516,632.436157 
z"/>
<path fill="#141414" opacity="1.000000" stroke="none" 
	d="
M575.474731,257.589813 
	C574.688416,257.983490 574.026733,258.079865 573.365112,258.176208 
	C573.441528,257.602386 573.518005,257.028595 573.594482,256.454773 
	C574.262817,256.734009 574.931152,257.013245 575.474731,257.589813 
z"/>
<path fill="#131313" opacity="1.000000" stroke="none" 
	d="
M631.757385,511.005402 
	C630.815430,510.635651 630.176208,510.271362 629.536987,509.907074 
	C629.725952,509.570862 629.914917,509.234680 630.103882,508.898468 
	C631.046265,509.491089 631.988708,510.083740 632.931091,510.676392 
	C632.799500,510.762146 632.677185,510.872253 632.533752,510.926971 
	C632.386597,510.983093 632.218872,510.985138 631.757385,511.005402 
z"/>
<path fill="#131313" opacity="1.000000" stroke="none" 
	d="
M598.937866,490.352173 
	C597.962952,490.524109 597.207642,490.471375 596.452393,490.418671 
	C596.527649,489.991730 596.602905,489.564789 596.678162,489.137878 
	C597.504639,489.467773 598.331116,489.797638 598.937866,490.352173 
z"/>
<path fill="#111111" opacity="1.000000" stroke="none" 
	d="
M291.191162,622.781494 
	C291.158112,623.536560 290.910645,624.064941 290.663147,624.593262 
	C290.243286,624.162903 289.823425,623.732544 289.403534,623.302185 
	C289.927917,623.052979 290.452301,622.803833 291.191162,622.781494 
z"/>
<path fill="#141414" opacity="1.000000" stroke="none" 
	d="
M573.256531,268.166290 
	C572.195129,268.171326 571.347107,267.967804 570.499084,267.764313 
	C570.738220,267.281281 570.977356,266.798218 571.216492,266.315186 
	C571.967651,266.862701 572.718750,267.410248 573.256531,268.166290 
z"/>
<path fill="#131313" opacity="1.000000" stroke="none" 
	d="
M602.076904,462.784058 
	C601.979858,462.013062 602.203064,461.260956 602.426208,460.508881 
	C602.832214,460.654846 603.238159,460.800842 603.644165,460.946808 
	C603.228455,461.565521 602.812744,462.184235 602.076904,462.784058 
z"/>
<path fill="#111111" opacity="1.000000" stroke="none" 
	d="
M296.638306,606.194702 
	C295.774414,606.072815 295.091736,605.694397 294.409027,605.315979 
	C294.835876,604.932068 295.262756,604.548157 295.689606,604.164246 
	C296.066223,604.755554 296.442871,605.346924 296.638306,606.194702 
z"/>
<path fill="#131313" opacity="1.000000" stroke="none" 
	d="
M641.091858,483.333008 
	C641.039673,484.427155 640.971802,485.193848 640.903931,485.960571 
	C640.588074,485.935120 640.272278,485.909698 639.956421,485.884247 
	C640.090759,484.616364 640.225037,483.348450 640.359375,482.080536 
	C640.475769,482.101288 640.660400,482.084198 640.696655,482.149414 
	C640.847473,482.421295 640.953674,482.717987 641.091858,483.333008 
z"/>
<path fill="#131313" opacity="1.000000" stroke="none" 
	d="
M624.685303,467.964935 
	C624.252014,468.446320 623.516418,468.922211 622.780884,469.398102 
	C622.643250,469.113647 622.505615,468.829193 622.367920,468.544739 
	C623.039673,468.349640 623.711426,468.154541 624.685303,467.964935 
z"/>
<path fill="#111111" opacity="1.000000" stroke="none" 
	d="
M321.685303,616.845581 
	C321.617188,617.855774 321.353638,618.640991 321.090088,619.426270 
	C320.729095,619.263000 320.368134,619.099792 320.007172,618.936584 
	C320.501404,618.164612 320.995636,617.392578 321.685303,616.845581 
z"/>
<path fill="#111111" opacity="1.000000" stroke="none" 
	d="
M318.751282,597.909058 
	C317.967468,597.944885 317.199036,597.684570 316.430634,597.424316 
	C316.597931,597.058411 316.765198,596.692505 316.932495,596.326599 
	C317.543915,596.755371 318.155304,597.184204 318.751282,597.909058 
z"/>
<path fill="#131313" opacity="1.000000" stroke="none" 
	d="
M617.793701,469.421143 
	C618.601807,469.169678 619.194885,469.098602 619.787964,469.027557 
	C619.793091,469.350555 619.798279,469.673584 619.803467,469.996613 
	C619.061890,469.864929 618.320312,469.733246 617.793701,469.421143 
z"/>
<path fill="#111111" opacity="1.000000" stroke="none" 
	d="
M290.224609,609.310547 
	C289.861847,608.701599 289.765289,608.153687 289.668732,607.605713 
	C289.960754,607.635071 290.502289,607.644653 290.506409,607.696838 
	C290.550293,608.251221 290.508820,608.812256 290.224609,609.310547 
z"/>
<path fill="#131313" opacity="1.000000" stroke="none" 
	d="
M635.805908,475.078339 
	C635.355469,474.502167 634.905090,473.925995 634.215820,472.975647 
	C633.993164,472.409180 634.009460,472.216980 634.025818,472.024750 
	C635.015625,472.774078 636.005432,473.523438 636.687012,474.651123 
	C636.187805,475.045746 635.996887,475.062042 635.805908,475.078339 
z"/>
<path fill="#111111" opacity="1.000000" stroke="none" 
	d="
M303.537231,628.530762 
	C303.036255,628.359802 302.769836,628.091248 302.503448,627.822693 
	C302.993805,627.659485 303.484161,627.496277 303.974518,627.333069 
	C303.906952,627.699768 303.839417,628.066528 303.537231,628.530762 
z"/>
<path fill="#141414" opacity="1.000000" stroke="none" 
	d="
M602.593994,244.625870 
	C601.951294,244.301270 601.535522,243.784927 601.185974,243.227097 
	C601.153564,243.175415 601.541931,242.860046 601.734985,242.667114 
	C602.102966,243.252335 602.470947,243.837570 602.593994,244.625870 
z"/>
<path fill="#131313" opacity="1.000000" stroke="none" 
	d="
M625.576050,507.939331 
	C624.968567,508.161316 624.345398,508.095276 623.722168,508.029266 
	C623.789551,507.760468 623.856873,507.491638 623.924194,507.222809 
	C624.469543,507.365662 625.014893,507.508484 625.576050,507.939331 
z"/>
<path fill="#131313" opacity="1.000000" stroke="none" 
	d="
M636.794678,491.767365 
	C637.311218,491.514130 637.870361,491.504761 638.424927,491.551025 
	C638.448425,491.552979 638.428772,492.071289 638.429199,492.349060 
	C637.898254,492.239838 637.367432,492.130646 636.794678,491.767365 
z"/>
<path fill="#111111" opacity="1.000000" stroke="none" 
	d="
M309.778870,625.216187 
	C309.528046,624.721985 309.517120,624.191895 309.564911,623.667236 
	C309.567322,623.640808 310.076843,623.660583 310.350250,623.658875 
	C310.243713,624.166382 310.137207,624.673950 309.778870,625.216187 
z"/>
<path fill="#141414" opacity="1.000000" stroke="none" 
	d="
M610.974121,265.651123 
	C610.931519,266.625885 610.832153,267.316559 610.732727,268.007263 
	C610.505554,267.983795 610.278381,267.960358 610.051208,267.936890 
	C610.104553,267.038239 610.148865,266.138855 610.226257,265.242279 
	C610.233398,265.160065 610.477478,265.014923 610.566956,265.042664 
	C610.704102,265.085205 610.802551,265.252625 610.974121,265.651123 
z"/>
<path fill="#141414" opacity="1.000000" stroke="none" 
	d="
M603.640503,284.602203 
	C603.680115,285.324890 603.524841,285.836761 603.369568,286.348633 
	C603.046326,286.055145 602.723083,285.761658 602.399841,285.468140 
	C602.748474,285.109222 603.097107,284.750275 603.640503,284.602203 
z"/>
<path fill="#131313" opacity="1.000000" stroke="none" 
	d="
M644.434814,478.250854 
	C644.299377,477.608459 644.355530,477.157745 644.411682,476.707062 
	C644.786011,476.902863 645.160339,477.098694 645.534668,477.294525 
	C645.231873,477.677216 644.929077,478.059875 644.434814,478.250854 
z"/>
<path fill="#111111" opacity="1.000000" stroke="none" 
	d="
M287.623535,607.094971 
	C287.332092,607.680237 287.010895,607.997803 286.689697,608.315430 
	C286.522919,607.948792 286.356140,607.582214 286.189362,607.215576 
	C286.657501,607.086182 287.125641,606.956787 287.623535,607.094971 
z"/>
<path fill="#131313" opacity="1.000000" stroke="none" 
	d="
M611.671753,475.537354 
	C612.113892,475.644684 612.384033,475.921814 612.628723,476.219910 
	C612.638855,476.232239 612.410217,476.440552 612.292786,476.557587 
	C612.026978,476.275391 611.761108,475.993195 611.671753,475.537354 
z"/>
<path fill="#131313" opacity="1.000000" stroke="none" 
	d="
M634.568726,465.002747 
	C634.182983,465.231995 633.789124,465.225464 633.400330,465.178070 
	C633.372253,465.174652 633.380432,464.873810 633.371765,464.711243 
	C633.768494,464.726471 634.165222,464.741699 634.568726,465.002747 
z"/>
<path fill="#131313" opacity="1.000000" stroke="none" 
	d="
M636.613281,506.533569 
	C637.060791,506.657196 637.336914,506.939758 637.592651,507.239685 
	C637.598999,507.247131 637.379761,507.446930 637.265747,507.557007 
	C636.990234,507.269592 636.714722,506.982147 636.613281,506.533569 
z"/>
<path fill="#131313" opacity="1.000000" stroke="none" 
	d="
M629.534058,463.990875 
	C629.812378,463.600433 630.364258,463.265472 630.916199,462.930511 
	C631.031555,463.175446 631.146912,463.420410 631.262329,463.665344 
	C630.777405,463.792358 630.292480,463.919373 629.534058,463.990875 
z"/>
<path fill="#131313" opacity="1.000000" stroke="none" 
	d="
M616.102417,473.241333 
	C615.375488,473.417450 614.648560,473.593567 613.921631,473.769653 
	C613.864685,473.479034 613.807739,473.188416 613.750793,472.897766 
	C614.459290,472.770111 615.167847,472.642456 616.016846,472.788086 
	C616.157227,473.061432 616.102417,473.241302 616.102417,473.241333 
z"/>
<path fill="#020202" opacity="1.000000" stroke="none" 
	d="
M634.007935,472.008240 
	C634.009460,472.216980 633.993164,472.409180 633.945557,472.890259 
	C633.207764,473.006622 632.501465,472.834106 631.795105,472.661560 
	C631.981140,472.451904 632.167175,472.242249 632.862549,472.018860 
	C633.564575,471.991364 633.757446,471.977631 633.950256,471.963867 
	C633.950256,471.963867 633.990112,471.991730 634.007935,472.008240 
z"/>
<path fill="#111111" opacity="1.000000" stroke="none" 
	d="
M301.006470,616.196350 
	C300.504395,615.884827 300.002319,615.573242 299.500244,615.261719 
	C299.977509,614.723694 300.454803,614.185730 301.045288,614.180481 
	C301.107819,615.207642 301.057159,615.701965 301.006470,616.196350 
z"/>
<path fill="#141414" opacity="1.000000" stroke="none" 
	d="
M594.172668,291.142395 
	C593.733643,291.651093 593.294617,292.159790 592.855591,292.668488 
	C593.015320,292.119751 593.174988,291.571045 593.680115,291.015686 
	C594.025574,291.009064 594.172668,291.142395 594.172668,291.142395 
z"/>
<path fill="#141414" opacity="1.000000" stroke="none" 
	d="
M596.361267,242.389877 
	C595.910950,242.274277 595.639709,241.990112 595.368469,241.705963 
	C595.489990,241.593475 595.709412,241.375259 595.718689,241.383850 
	C596.005188,241.649307 596.271179,241.937027 596.361267,242.389877 
z"/>
<path fill="#141414" opacity="1.000000" stroke="none" 
	d="
M583.789978,257.805969 
	C584.290771,257.352081 584.791565,256.898224 585.292358,256.444336 
	C585.116760,256.990540 584.941162,257.536713 584.379272,258.045349 
	C583.993042,258.007782 583.789978,257.805969 583.789978,257.805969 
z"/>
<path fill="#141414" opacity="1.000000" stroke="none" 
	d="
M605.091797,255.896210 
	C605.588196,256.369324 606.084595,256.842438 606.580994,257.315552 
	C606.045959,257.105774 605.510986,256.896027 604.988342,256.341034 
	C605.000732,255.995789 605.091797,255.896210 605.091797,255.896210 
z"/>
<path fill="#111111" opacity="1.000000" stroke="none" 
	d="
M312.519165,629.510010 
	C312.584747,629.013855 312.843567,628.706970 313.102386,628.400085 
	C313.292297,628.596436 313.482208,628.792847 313.672119,628.989258 
	C313.352234,629.225952 313.032349,629.462646 312.519165,629.510010 
z"/>
<path fill="#141414" opacity="1.000000" stroke="none" 
	d="
M608.206665,259.794525 
	C608.578430,260.332031 608.950195,260.869568 609.321960,261.407074 
	C608.856506,261.187500 608.391113,260.967957 607.960999,260.372192 
	C607.996338,259.995941 608.206665,259.794525 608.206665,259.794525 
z"/>
<path fill="#141414" opacity="1.000000" stroke="none" 
	d="
M579.183838,261.153320 
	C578.743042,261.652740 578.302246,262.152161 577.861450,262.651611 
	C578.017883,262.106262 578.174316,261.560883 578.677979,261.011658 
	C579.025330,261.007782 579.183838,261.153320 579.183838,261.153320 
z"/>
<path fill="#111111" opacity="1.000000" stroke="none" 
	d="
M281.067261,607.514282 
	C281.391083,607.677124 281.688995,608.077637 281.908264,608.517395 
	C281.938385,608.577820 281.577362,608.833191 281.397400,608.998291 
	C281.270416,608.586975 281.143463,608.175659 281.067261,607.514282 
z"/>
<path fill="#141414" opacity="1.000000" stroke="none" 
	d="
M604.493652,276.509583 
	C604.427734,276.982788 604.182800,277.274231 603.937866,277.565674 
	C603.762085,277.381836 603.586365,277.197937 603.410645,277.014038 
	C603.711914,276.785278 604.013245,276.556580 604.493652,276.509583 
z"/>
<path fill="#111111" opacity="1.000000" stroke="none" 
	d="
M287.402649,627.530029 
	C286.926880,627.467773 286.638611,627.232117 286.350342,626.996521 
	C286.533417,626.815796 286.716492,626.635071 286.899567,626.454346 
	C287.129761,626.755127 287.359985,627.055847 287.402649,627.530029 
z"/>
<path fill="#141414" opacity="1.000000" stroke="none" 
	d="
M588.423828,255.459198 
	C587.976135,255.345352 587.705750,255.063873 587.435425,254.782379 
	C587.553955,254.671707 587.767639,254.456726 587.777222,254.465500 
	C588.064331,254.727264 588.331177,255.011154 588.423828,255.459198 
z"/>
<path fill="#141414" opacity="1.000000" stroke="none" 
	d="
M598.794312,287.804535 
	C599.299255,287.348206 599.804199,286.891876 600.309143,286.435547 
	C600.131104,286.986755 599.953064,287.537964 599.385254,288.048401 
	C598.995422,288.007599 598.794312,287.804535 598.794312,287.804535 
z"/>
<path fill="#111111" opacity="1.000000" stroke="none" 
	d="
M317.431458,625.479736 
	C316.975830,625.433960 316.700623,625.211426 316.425415,624.988892 
	C316.614014,624.805847 316.802582,624.622864 316.991150,624.439819 
	C317.198059,624.727539 317.404968,625.015320 317.431458,625.479736 
z"/>
<path fill="#141414" opacity="1.000000" stroke="none" 
	d="
M586.945435,293.053528 
	C586.235962,292.541016 585.563293,291.989685 584.890686,291.438354 
	C585.123474,291.203918 585.356323,290.969452 585.589111,290.734985 
	C585.991638,291.295441 586.394226,291.855865 586.924377,292.674866 
	C587.052002,292.933380 586.982300,293.014679 586.945435,293.053528 
z"/>
<path fill="#131313" opacity="1.000000" stroke="none" 
	d="
M604.892029,479.900055 
	C604.932861,479.199127 605.062195,478.571625 605.191589,477.944122 
	C605.313660,477.940918 605.435791,477.937744 605.557861,477.934570 
	C605.557861,478.521637 605.557861,479.108734 605.359680,479.905579 
	C605.161499,480.115326 604.980591,479.973450 604.892029,479.900055 
z"/>
<path fill="#131313" opacity="1.000000" stroke="none" 
	d="
M620.867920,500.180054 
	C620.155334,500.154144 619.530029,500.004486 618.904724,499.854828 
	C618.909058,499.697906 618.913330,499.540955 618.917664,499.384033 
	C619.525940,499.384033 620.134277,499.384033 620.941406,499.600281 
	C621.140137,499.816498 620.955139,500.056305 620.867920,500.180054 
z"/>
<path fill="#141414" opacity="1.000000" stroke="none" 
	d="
M582.201477,252.175308 
	C581.616821,252.522003 581.032227,252.868713 580.447632,253.215424 
	C580.732117,252.786835 581.016663,252.358231 581.656616,251.961823 
	C582.012085,251.994019 582.201477,252.175323 582.201477,252.175308 
z"/>
<path fill="#131313" opacity="1.000000" stroke="none" 
	d="
M637.191711,501.220245 
	C637.267395,501.662994 637.373962,502.105103 637.382935,502.549194 
	C637.384155,502.609955 636.899841,502.680511 636.640381,502.746521 
	C636.568909,502.221161 636.497498,501.695770 636.725342,501.096375 
	C637.024597,501.022369 637.191711,501.220245 637.191711,501.220245 
z"/>
<path fill="#030303" opacity="1.000000" stroke="none" 
	d="
M301.114929,616.318726 
	C301.057159,615.701965 301.107819,615.207642 301.250580,614.352417 
	C301.342651,613.991638 301.595337,614.012024 301.759216,614.380554 
	C301.971252,615.227600 302.019409,615.706177 302.067535,616.184692 
	C302.067535,616.184692 301.686798,616.490356 301.686798,616.490356 
	C301.686798,616.490356 301.223389,616.441162 301.114929,616.318726 
z"/>
<path fill="#131313" opacity="1.000000" stroke="none" 
	d="
M599.133301,464.306915 
	C599.392334,464.143372 599.612671,464.181244 599.832947,464.219116 
	C599.758362,464.500214 599.683777,464.781250 599.609192,465.062317 
	C599.437683,464.877655 599.266174,464.692993 599.133301,464.306915 
z"/>
<path fill="#111111" opacity="1.000000" stroke="none" 
	d="
M309.529907,618.718445 
	C309.884552,618.515930 310.287323,618.554321 310.690125,618.592773 
	C310.591644,618.868652 310.493164,619.144592 310.394684,619.420471 
	C310.122467,619.266785 309.850281,619.113037 309.529907,618.718445 
z"/>
<path fill="#131313" opacity="1.000000" stroke="none" 
	d="
M589.958618,470.606598 
	C589.622498,470.758362 589.335327,470.658539 589.048096,470.558685 
	C589.232300,470.244171 589.416504,469.929657 589.600708,469.615112 
	C589.736328,469.861755 589.871887,470.108368 589.958618,470.606598 
z"/>
<path fill="#141414" opacity="1.000000" stroke="none" 
	d="
M614.144104,275.122559 
	C613.790039,275.684235 613.316040,276.144073 612.841980,276.603912 
	C613.011780,276.108551 613.181580,275.613190 613.570251,274.964539 
	C613.789185,274.811310 614.024109,275.020752 614.144104,275.122559 
z"/>
<path fill="#131313" opacity="1.000000" stroke="none" 
	d="
M600.678467,498.705780 
	C600.663696,498.983734 600.509583,499.138580 600.355530,499.293396 
	C600.416687,499.056519 600.477905,498.819580 600.678467,498.705780 
z"/>
<path fill="#131313" opacity="1.000000" stroke="none" 
	d="
M631.871704,498.003326 
	C631.648926,498.227112 631.415466,498.240540 631.187683,498.210449 
	C631.165833,498.207520 631.179749,497.934021 631.177063,497.786133 
	C631.405579,497.784393 631.634094,497.782623 631.871704,498.003326 
z"/>
<path fill="#111111" opacity="1.000000" stroke="none" 
	d="
M307.253113,590.638306 
	C307.017151,590.624084 306.888184,590.494995 306.759247,590.365967 
	C306.959534,590.418457 307.159821,590.471008 307.253113,590.638306 
z"/>
<path fill="#141414" opacity="1.000000" stroke="none" 
	d="
M609.202942,281.171753 
	C608.726685,281.344421 608.250366,281.517059 607.774109,281.689728 
	C607.950745,281.407593 608.127380,281.125427 608.655640,280.915924 
	C609.007263,280.988556 609.202942,281.171753 609.202942,281.171753 
z"/>
<path fill="#141414" opacity="1.000000" stroke="none" 
	d="
M605.339233,283.268982 
	C605.354309,283.023590 605.494385,282.886932 605.634521,282.750275 
	C605.577759,282.959412 605.521057,283.168549 605.339233,283.268982 
z"/>
<path fill="#141414" opacity="1.000000" stroke="none" 
	d="
M589.154907,288.130157 
	C588.656372,288.244049 588.157837,288.357941 587.659302,288.471863 
	C587.903381,288.292999 588.147461,288.114136 588.699585,287.963989 
	C589.007690,287.992706 589.154907,288.130157 589.154907,288.130157 
z"/>
<path fill="#111111" opacity="1.000000" stroke="none" 
	d="
M306.985168,626.765381 
	C306.873199,626.593750 306.928162,626.421204 306.983093,626.248596 
	C307.039429,626.420532 307.095734,626.592407 306.985168,626.765381 
z"/>
<path fill="#111111" opacity="1.000000" stroke="none" 
	d="
M292.811890,609.984009 
	C292.611694,610.115845 292.411316,610.053406 292.210907,609.990906 
	C292.411163,609.923828 292.611450,609.856689 292.811890,609.984009 
z"/>
<path fill="#111111" opacity="1.000000" stroke="none" 
	d="
M284.604218,624.258911 
	C284.450500,624.138306 284.428223,623.934875 284.405945,623.731445 
	C284.515839,623.879639 284.625732,624.027832 284.604218,624.258911 
z"/>
<path fill="#111111" opacity="1.000000" stroke="none" 
	d="
M304.018799,589.224487 
	C304.137787,589.405090 304.079803,589.586304 304.021851,589.767517 
	C303.961853,589.586670 303.901886,589.405884 304.018799,589.224487 
z"/>
<path fill="#141414" opacity="1.000000" stroke="none" 
	d="
M566.180908,266.087463 
	C566.393066,265.877594 566.609619,265.864349 566.820557,265.892853 
	C566.841797,265.895721 566.829041,266.150879 566.832031,266.288940 
	C566.615967,266.291260 566.399841,266.293579 566.180908,266.087463 
z"/>
<path fill="#111111" opacity="1.000000" stroke="none" 
	d="
M317.727356,609.989746 
	C317.604370,610.153564 317.480530,610.173523 317.356750,610.193420 
	C317.480011,610.077576 317.603271,609.961731 317.727356,609.989746 
z"/>
<path fill="#111111" opacity="1.000000" stroke="none" 
	d="
M316.042603,604.945740 
	C316.159119,605.400269 316.275604,605.854736 316.392090,606.309265 
	C316.256927,606.045410 316.121796,605.781494 315.991974,605.257385 
	C315.997284,604.997131 316.042603,604.945740 316.042603,604.945740 
z"/>
<path fill="#131313" opacity="1.000000" stroke="none" 
	d="
M613.017029,466.202118 
	C613.222168,466.412262 613.236694,466.627563 613.202087,466.834656 
	C613.197388,466.862671 612.946411,466.849518 612.809448,466.855438 
	C612.809998,466.638519 612.810486,466.421600 613.017029,466.202118 
z"/>
<path fill="#111111" opacity="1.000000" stroke="none" 
	d="
M302.287292,615.987183 
	C302.019409,615.706177 301.971252,615.227600 301.885498,614.391968 
	C302.067596,614.619812 302.287323,615.204712 302.287292,615.987183 
z"/>
<path fill="#111111" opacity="1.000000" stroke="none" 
	d="
M286.324280,601.654602 
	C286.060974,601.641724 285.915649,601.498779 285.770355,601.355713 
	C285.994324,601.411987 286.218292,601.468201 286.324280,601.654602 
z"/>
<path fill="#131313" opacity="1.000000" stroke="none" 
	d="
M643.195923,473.940521 
	C643.394592,473.809296 643.593994,473.872284 643.793396,473.935272 
	C643.594482,474.001770 643.395569,474.068268 643.195923,473.940521 
z"/>
<path fill="#111111" opacity="1.000000" stroke="none" 
	d="
M316.260345,613.012878 
	C316.416626,612.911011 316.573853,612.961304 316.731079,613.011719 
	C316.574493,613.062805 316.417908,613.113892 316.260345,613.012878 
z"/>
<path fill="#131313" opacity="1.000000" stroke="none" 
	d="
M639.179688,500.148071 
	C638.702271,500.452789 638.224915,500.757507 637.469604,501.141235 
	C637.191711,501.220245 637.024597,501.022369 636.941040,500.921936 
	C637.324890,500.506958 637.792419,500.192383 638.630615,499.929596 
	C639.001404,499.981384 639.179688,500.148071 639.179688,500.148071 
z"/>
<path fill="#131313" opacity="1.000000" stroke="none" 
	d="
M595.985962,469.231812 
	C596.098022,469.403748 596.043823,469.575775 595.989746,469.747803 
	C595.933044,469.575836 595.876404,469.403900 595.985962,469.231812 
z"/>
<path fill="#020202" opacity="1.000000" stroke="none" 
	d="
M635.708374,475.216858 
	C635.996887,475.062042 636.187805,475.045746 636.664062,474.993866 
	C636.949280,474.958252 637.000183,475.011414 636.929199,475.248108 
	C636.858276,475.484833 636.712219,475.909729 636.712219,475.909729 
	C636.345093,475.724945 635.978027,475.540131 635.708374,475.216858 
z"/>
<path fill="#131313" opacity="1.000000" stroke="none" 
	d="
M615.655640,504.638977 
	C615.798950,504.443604 616.055237,504.410950 616.311584,504.378326 
	C616.130615,504.519440 615.949646,504.660553 615.655640,504.638977 
z"/>
<path fill="#131313" opacity="1.000000" stroke="none" 
	d="
M639.825378,469.200775 
	C639.449036,468.915894 639.072632,468.631012 638.696289,468.346130 
	C639.086853,468.367310 639.477478,468.388519 639.938782,468.709595 
	C640.009521,469.009430 639.825378,469.200775 639.825378,469.200775 
z"/>
<path fill="#111111" opacity="1.000000" stroke="none" 
	d="
M304.037781,610.220581 
	C304.160400,610.408508 304.101013,610.596191 304.041626,610.783813 
	C303.979706,610.595947 303.917755,610.408142 304.037781,610.220581 
z"/>
<path fill="#111111" opacity="1.000000" stroke="none" 
	d="
M292.355499,603.621704 
	C292.554291,603.766418 292.589813,604.028442 292.625336,604.290405 
	C292.480957,604.106628 292.336578,603.922791 292.355499,603.621704 
z"/>
<path fill="#141414" opacity="1.000000" stroke="none" 
	d="
M608.712830,252.355164 
	C609.008667,252.374619 609.172546,252.541199 609.336487,252.707764 
	C609.084656,252.639267 608.832764,252.570770 608.712830,252.355164 
z"/>
<path fill="#131313" opacity="1.000000" stroke="none" 
	d="
M597.600342,467.258667 
	C597.420776,467.117737 597.394958,466.878784 597.369141,466.639832 
	C597.497498,466.813446 597.625793,466.987061 597.600342,467.258667 
z"/>
<path fill="#131313" opacity="1.000000" stroke="none" 
	d="
M596.439087,496.428406 
	C596.517456,496.378021 596.548035,496.579407 596.548035,496.579407 
	C596.548035,496.579407 596.360779,496.478760 596.439087,496.428406 
z"/>
<path fill="#111111" opacity="1.000000" stroke="none" 
	d="
M308.441650,596.540405 
	C308.397400,596.471313 308.485870,596.609558 308.441650,596.540405 
z"/>
<path fill="#111111" opacity="1.000000" stroke="none" 
	d="
M306.454742,595.430969 
	C306.529449,595.382324 306.553894,595.579102 306.553894,595.579102 
	C306.553894,595.579102 306.380035,595.479614 306.454742,595.430969 
z"/>
<path fill="#111111" opacity="1.000000" stroke="none" 
	d="
M282.451416,604.540955 
	C282.419342,604.486023 282.483459,604.595886 282.451416,604.540955 
z"/>
<path fill="#111111" opacity="1.000000" stroke="none" 
	d="
M313.444580,600.555786 
	C313.407196,600.493896 313.481995,600.617737 313.444580,600.555786 
z"/>
<path fill="#111111" opacity="1.000000" stroke="none" 
	d="
M319.841125,601.186096 
	C319.757690,600.966980 319.674286,600.747925 319.590881,600.528809 
	C319.715851,600.549500 319.840790,600.570190 319.985413,600.802063 
	C320.005066,601.013245 319.841125,601.186096 319.841125,601.186096 
z"/>
<path fill="#111111" opacity="1.000000" stroke="none" 
	d="
M314.583496,602.423828 
	C314.641449,602.507874 314.418640,602.544128 314.418640,602.544128 
	C314.418640,602.544128 314.525574,602.339783 314.583496,602.423828 
z"/>
<path fill="#111111" opacity="1.000000" stroke="none" 
	d="
M288.543945,602.578674 
	C288.463165,602.632385 288.433746,602.418945 288.433746,602.418945 
	C288.433746,602.418945 288.624725,602.524963 288.543945,602.578674 
z"/>
<path fill="#111111" opacity="1.000000" stroke="none" 
	d="
M320.091614,600.931396 
	C320.268402,601.084106 320.358673,601.318665 320.448944,601.553284 
	C320.316376,601.527405 320.183838,601.501526 319.946198,601.330872 
	C319.841125,601.186096 320.005066,601.013245 320.091614,600.931396 
z"/>
<path fill="#111111" opacity="1.000000" stroke="none" 
	d="
M287.569153,619.457886 
	C287.620880,619.537415 287.412292,619.564880 287.412292,619.564880 
	C287.412292,619.564880 287.517395,619.378357 287.569153,619.457886 
z"/>
<path fill="#111111" opacity="1.000000" stroke="none" 
	d="
M294.589844,631.440674 
	C294.651276,631.526428 294.416534,631.560730 294.416534,631.560730 
	C294.416534,631.560730 294.528412,631.354919 294.589844,631.440674 
z"/>
<path fill="#111111" opacity="1.000000" stroke="none" 
	d="
M315.527466,627.553528 
	C315.447418,627.604370 315.423828,627.394287 315.423828,627.394287 
	C315.423828,627.394287 315.607513,627.502686 315.527466,627.553528 
z"/>
<path fill="#111111" opacity="1.000000" stroke="none" 
	d="
M297.527710,627.478394 
	C297.551514,627.521606 297.503876,627.435120 297.527710,627.478394 
z"/>
<path fill="#111111" opacity="1.000000" stroke="none" 
	d="
M295.442383,626.439575 
	C295.512390,626.394836 295.372345,626.484375 295.442383,626.439575 
z"/>
<path fill="#111111" opacity="1.000000" stroke="none" 
	d="
M293.449402,625.438782 
	C293.518463,625.394592 293.380310,625.482971 293.449402,625.438782 
z"/>
<path fill="#111111" opacity="1.000000" stroke="none" 
	d="
M319.563477,621.579834 
	C319.471313,621.645813 319.434052,621.393555 319.434052,621.393555 
	C319.434052,621.393555 319.655640,621.513794 319.563477,621.579834 
z"/>
<path fill="#111111" opacity="1.000000" stroke="none" 
	d="
M313.532196,621.476440 
	C313.552155,621.515320 313.512238,621.437561 313.532196,621.476440 
z"/>
<path fill="#111111" opacity="1.000000" stroke="none" 
	d="
M312.450409,619.536499 
	C312.412689,619.475769 312.488129,619.597290 312.450409,619.536499 
z"/>
<path fill="#111111" opacity="1.000000" stroke="none" 
	d="
M315.971680,605.020020 
	C315.844635,604.885498 315.743164,604.728149 315.641693,604.570801 
	C315.731079,604.611938 315.820465,604.653076 315.976196,604.819946 
	C316.042603,604.945740 315.997284,604.997131 315.971680,605.020020 
z"/>
<path fill="#111111" opacity="1.000000" stroke="none" 
	d="
M286.440643,617.546936 
	C286.400482,617.482483 286.480804,617.611389 286.440643,617.546936 
z"/>
<path fill="#141414" opacity="1.000000" stroke="none" 
	d="
M592.812317,243.841827 
	C592.999329,243.688278 593.186401,243.534744 593.373474,243.381226 
	C593.408203,243.579788 593.442871,243.778351 593.235352,243.994598 
	C592.993103,244.012268 592.812317,243.841827 592.812317,243.841827 
z"/>
<path fill="#141414" opacity="1.000000" stroke="none" 
	d="
M593.078735,244.102325 
	C592.962646,244.149689 592.761047,244.106995 592.685852,243.953064 
	C592.812317,243.841827 592.993103,244.012268 593.078735,244.102325 
z"/>
<path fill="#141414" opacity="1.000000" stroke="none" 
	d="
M589.907471,245.890442 
	C590.017029,245.626205 590.226379,245.464417 590.435669,245.302612 
	C590.475647,245.523071 590.515625,245.743530 590.382690,246.079208 
	C590.209839,246.194443 590.007141,245.992859 589.907471,245.890442 
z"/>
<path fill="#111111" opacity="1.000000" stroke="none" 
	d="
M306.577087,611.433960 
	C306.649506,611.533081 306.375336,611.574097 306.375336,611.574097 
	C306.375336,611.574097 306.504669,611.334900 306.577087,611.433960 
z"/>
<path fill="#111111" opacity="1.000000" stroke="none" 
	d="
M296.445190,611.542358 
	C296.399231,611.471863 296.588165,611.453247 296.588165,611.453247 
	C296.588165,611.453247 296.491180,611.612915 296.445190,611.542358 
z"/>
<path fill="#111111" opacity="1.000000" stroke="none" 
	d="
M294.557739,610.569580 
	C294.482788,610.618774 294.456360,610.421692 294.456360,610.421692 
	C294.456360,610.421692 294.632660,610.520325 294.557739,610.569580 
z"/>
<path fill="#141414" opacity="1.000000" stroke="none" 
	d="
M599.095215,288.109863 
	C598.981628,288.378082 598.768250,288.544006 598.554810,288.709930 
	C598.513855,288.482910 598.472900,288.255920 598.613159,287.916718 
	C598.794312,287.804535 598.995422,288.007599 599.095215,288.109863 
z"/>
<path fill="#020202" opacity="1.000000" stroke="none" 
	d="
M616.905945,472.902313 
	C617.028137,472.910736 617.150391,472.919159 617.124146,472.954071 
	C616.975708,472.980530 616.905945,472.902313 616.905945,472.902313 
z"/>
<path fill="#131313" opacity="1.000000" stroke="none" 
	d="
M642.575439,471.637329 
	C642.459900,471.730103 642.395203,471.402161 642.395203,471.402161 
	C642.395203,471.402161 642.690918,471.544586 642.575439,471.637329 
z"/>
<path fill="#131313" opacity="1.000000" stroke="none" 
	d="
M633.877869,471.768097 
	C633.757446,471.977631 633.564575,471.991364 633.080688,471.979340 
	C633.128235,471.826477 633.466858,471.699402 633.877869,471.768097 
z"/>
<path fill="#131313" opacity="1.000000" stroke="none" 
	d="
M609.197205,471.168335 
	C609.013794,471.326385 608.830322,471.484436 608.646851,471.642517 
	C608.608215,471.440247 608.569519,471.238007 608.770813,471.013458 
	C609.010742,470.991150 609.197205,471.168304 609.197205,471.168335 
z"/>
<path fill="#141414" opacity="1.000000" stroke="none" 
	d="
M577.796753,254.828171 
	C577.997803,254.661789 578.198914,254.495407 578.399963,254.329041 
	C578.441345,254.547760 578.482727,254.766464 578.257690,254.998611 
	C577.991272,255.012039 577.796753,254.828171 577.796753,254.828171 
z"/>
<path fill="#131313" opacity="1.000000" stroke="none" 
	d="
M608.921997,470.898132 
	C609.047424,470.852997 609.261658,470.900848 609.336548,471.058533 
	C609.197205,471.168304 609.010742,470.991150 608.921997,470.898132 
z"/>
<path fill="#131313" opacity="1.000000" stroke="none" 
	d="
M640.105225,468.917419 
	C640.291870,469.072540 640.382812,469.319641 640.473755,469.566772 
	C640.331909,469.545166 640.190063,469.523560 639.936768,469.351379 
	C639.825378,469.200775 640.009521,469.009430 640.105225,468.917419 
z"/>
<path fill="#131313" opacity="1.000000" stroke="none" 
	d="
M609.472290,468.424408 
	C609.559265,468.370453 609.592896,468.590210 609.592896,468.590210 
	C609.592896,468.590210 609.385315,468.478363 609.472290,468.424408 
z"/>
<path fill="#131313" opacity="1.000000" stroke="none" 
	d="
M591.444702,466.429260 
	C591.526611,466.372742 591.555420,466.594696 591.555420,466.594696 
	C591.555420,466.594696 591.362854,466.485779 591.444702,466.429260 
z"/>
<path fill="#131313" opacity="1.000000" stroke="none" 
	d="
M596.418762,459.583282 
	C596.349487,459.487671 596.609863,459.444641 596.609863,459.444641 
	C596.609863,459.444641 596.488037,459.678894 596.418762,459.583282 
z"/>
<path fill="#131313" opacity="1.000000" stroke="none" 
	d="
M603.099854,456.921753 
	C603.284180,457.075165 603.377380,457.315704 603.470581,457.556274 
	C603.332947,457.532043 603.195374,457.507812 602.946350,457.337555 
	C602.834961,457.191528 603.008789,457.008911 603.099854,456.921753 
z"/>
<path fill="#131313" opacity="1.000000" stroke="none" 
	d="
M598.637756,457.648132 
	C598.433838,457.670288 598.360474,457.584778 598.287170,457.499329 
	C598.447571,457.513062 598.607971,457.526794 598.637756,457.648132 
z"/>
<path fill="#141414" opacity="1.000000" stroke="none" 
	d="
M593.957153,290.937164 
	C594.058899,290.893890 594.229126,290.922485 594.286011,291.046753 
	C594.172668,291.142395 594.025574,291.009064 593.957153,290.937164 
z"/>
<path fill="#141414" opacity="1.000000" stroke="none" 
	d="
M596.463867,289.421326 
	C596.553101,289.365784 596.590088,289.589783 596.590088,289.589783 
	C596.590088,289.589783 596.374695,289.476898 596.463867,289.421326 
z"/>
<path fill="#020202" opacity="1.000000" stroke="none" 
	d="
M616.227417,472.998901 
	C616.297607,472.936340 616.603271,472.938904 616.754639,472.920593 
	C616.905945,472.902313 616.975708,472.980530 617.007202,473.021942 
	C616.887390,473.405029 616.642944,473.537140 616.203918,473.350525 
	C616.102417,473.241302 616.157227,473.061432 616.227417,472.998901 
z"/>
<path fill="#141414" opacity="1.000000" stroke="none" 
	d="
M588.938660,287.919373 
	C589.054382,287.873962 589.239136,287.901855 589.289429,288.029968 
	C589.154907,288.130157 589.007690,287.992706 588.938660,287.919373 
z"/>
<path fill="#141414" opacity="1.000000" stroke="none" 
	d="
M596.921875,281.900024 
	C597.050720,281.853149 597.269043,281.899994 597.343140,282.059814 
	C597.198853,282.172791 597.011475,281.993744 596.921875,281.900024 
z"/>
<path fill="#141414" opacity="1.000000" stroke="none" 
	d="
M608.912476,280.893799 
	C609.031921,280.840912 609.246094,280.882751 609.331665,281.048187 
	C609.202942,281.171753 609.007263,280.988556 608.912476,280.893799 
z"/>
<path fill="#141414" opacity="1.000000" stroke="none" 
	d="
M609.568909,270.601807 
	C609.475342,270.671417 609.432983,270.412354 609.432983,270.412354 
	C609.432983,270.412354 609.662476,270.532227 609.568909,270.601807 
z"/>
<path fill="#141414" opacity="1.000000" stroke="none" 
	d="
M603.878784,255.133820 
	C603.778015,254.935562 603.677185,254.737320 603.576416,254.539062 
	C603.696899,254.565048 603.817322,254.591049 603.965149,254.814362 
	C603.992493,255.011673 603.878784,255.133820 603.878784,255.133820 
z"/>
<path fill="#141414" opacity="1.000000" stroke="none" 
	d="
M575.469666,263.521118 
	C575.446594,263.478638 575.492737,263.563568 575.469666,263.521118 
z"/>
<path fill="#141414" opacity="1.000000" stroke="none" 
	d="
M578.951050,260.929901 
	C579.057312,260.886658 579.237793,260.921295 579.301025,261.054626 
	C579.183838,261.153320 579.025330,261.007782 578.951050,260.929901 
z"/>
<path fill="#141414" opacity="1.000000" stroke="none" 
	d="
M607.892090,260.097656 
	C607.607849,259.971832 607.427795,259.744263 607.247742,259.516724 
	C607.492981,259.475616 607.738220,259.434509 608.095093,259.593964 
	C608.206665,259.794525 607.996338,259.995941 607.892090,260.097656 
z"/>
<path fill="#141414" opacity="1.000000" stroke="none" 
	d="
M581.463867,259.415192 
	C581.560120,259.354340 581.602417,259.596375 581.602417,259.596375 
	C581.602417,259.596375 581.367615,259.476044 581.463867,259.415192 
z"/>
<path fill="#141414" opacity="1.000000" stroke="none" 
	d="
M571.593018,259.605286 
	C571.492554,259.679749 571.440125,259.407745 571.440125,259.407745 
	C571.440125,259.407745 571.693481,259.530823 571.593018,259.605286 
z"/>
<path fill="#141414" opacity="1.000000" stroke="none" 
	d="
M584.092773,258.110413 
	C583.984314,258.371704 583.776001,258.530334 583.567749,258.688995 
	C583.527893,258.470703 583.488098,258.252411 583.619141,257.920044 
	C583.789978,257.805969 583.993042,258.007782 584.092773,258.110413 
z"/>
<path fill="#141414" opacity="1.000000" stroke="none" 
	d="
M604.053345,254.954590 
	C604.445618,254.982986 604.708069,255.166794 604.996704,255.672562 
	C605.091797,255.896210 605.000732,255.995789 604.948730,256.044128 
	C604.564636,256.015869 604.293091,255.843689 603.980530,255.354858 
	C603.878784,255.133820 603.992493,255.011673 604.053345,254.954590 
z"/>
<path fill="#141414" opacity="1.000000" stroke="none" 
	d="
M578.083862,255.108673 
	C577.965332,255.156952 577.754272,255.108597 577.669922,254.944199 
	C577.796753,254.828171 577.991272,255.012039 578.083862,255.108673 
z"/>
<path fill="#131313" opacity="1.000000" stroke="none" 
	d="
M616.549805,498.465485 
	C616.585083,498.523468 616.514587,498.407501 616.549805,498.465485 
z"/>
<path fill="#141414" opacity="1.000000" stroke="none" 
	d="
M603.410278,249.556824 
	C603.351074,249.473785 603.578735,249.441757 603.578735,249.441757 
	C603.578735,249.441757 603.469543,249.639877 603.410278,249.556824 
z"/>
<path fill="#141414" opacity="1.000000" stroke="none" 
	d="
M584.429443,250.526184 
	C584.379761,250.444611 584.585205,250.415070 584.585205,250.415070 
	C584.585205,250.415070 584.479187,250.607742 584.429443,250.526184 
z"/>
<path fill="#111111" opacity="1.000000" stroke="none" 
	d="
M311.463074,592.440002 
	C311.530884,592.398865 311.395294,592.481140 311.463074,592.440002 
z"/>
<path fill="#131313" opacity="1.000000" stroke="none" 
	d="
M627.550415,508.562744 
	C627.482056,508.606232 627.618713,508.519257 627.550415,508.562744 
z"/>
<path fill="#131313" opacity="1.000000" stroke="none" 
	d="
M621.564331,506.565460 
	C621.488220,506.615814 621.461060,506.414917 621.461060,506.414917 
	C621.461060,506.414917 621.640503,506.515106 621.564331,506.565460 
z"/>
<path fill="#131313" opacity="1.000000" stroke="none" 
	d="
M634.101685,504.923096 
	C634.279358,505.065369 634.365173,505.295227 634.450928,505.525085 
	C634.318726,505.505676 634.186523,505.486237 633.944946,505.331146 
	C633.835632,505.195465 634.009827,505.010681 634.101685,504.923096 
z"/>
<path fill="#131313" opacity="1.000000" stroke="none" 
	d="
M619.552368,505.564697 
	C619.482300,505.609772 619.622498,505.519623 619.552368,505.564697 
z"/>
<path fill="#131313" opacity="1.000000" stroke="none" 
	d="
M613.586731,503.444214 
	C613.640442,503.520813 613.431580,503.548553 613.431580,503.548553 
	C613.431580,503.548553 613.533020,503.367615 613.586731,503.444214 
z"/>
<path fill="#141414" opacity="1.000000" stroke="none" 
	d="
M581.921509,251.899292 
	C582.050476,251.852661 582.270081,251.900757 582.345581,252.062088 
	C582.201477,252.175323 582.012085,251.994019 581.921509,251.899292 
z"/>
<path fill="#131313" opacity="1.000000" stroke="none" 
	d="
M611.437500,502.546722 
	C611.390076,502.474701 611.582458,502.453278 611.582458,502.453278 
	C611.582458,502.453278 611.484924,502.618744 611.437500,502.546722 
z"/>
<path fill="#131313" opacity="1.000000" stroke="none" 
	d="
M629.190247,500.162170 
	C628.986023,500.120422 628.781799,500.078674 628.796936,500.017395 
	C629.016296,499.997864 629.190247,500.162140 629.190247,500.162170 
z"/>
<path fill="#131313" opacity="1.000000" stroke="none" 
	d="
M638.916992,499.893250 
	C639.028748,499.843964 639.224915,499.882782 639.300415,500.034851 
	C639.179688,500.148071 639.001404,499.981384 638.916992,499.893250 
z"/>
<path fill="#131313" opacity="1.000000" stroke="none" 
	d="
M628.934082,499.910919 
	C629.055847,499.866669 629.259766,499.909363 629.326965,500.057098 
	C629.190247,500.162140 629.016296,499.997864 628.934082,499.910919 
z"/>
<path fill="#111111" opacity="1.000000" stroke="none" 
	d="
M314.545654,594.568237 
	C314.471588,594.616516 314.447449,594.421326 314.447449,594.421326 
	C314.447449,594.421326 314.619720,594.520020 314.545654,594.568237 
z"/>
<path fill="#131313" opacity="1.000000" stroke="none" 
	d="
M633.604126,497.440796 
	C633.673157,497.534180 633.415100,497.575653 633.415100,497.575653 
	C633.415100,497.575653 633.535095,497.347412 633.604126,497.440796 
z"/>
<path fill="#131313" opacity="1.000000" stroke="none" 
	d="
M614.533936,497.547974 
	C614.480164,497.579407 614.587708,497.516510 614.533936,497.547974 
z"/>
<path fill="#131313" opacity="1.000000" stroke="none" 
	d="
M598.551514,497.555145 
	C598.488892,497.593414 598.614075,497.516876 598.551514,497.555145 
z"/>
<path fill="#131313" opacity="1.000000" stroke="none" 
	d="
M594.098450,494.924774 
	C594.274780,495.066711 594.364441,495.290955 594.454041,495.515198 
	C594.325867,495.491699 594.197754,495.468170 593.958984,495.313019 
	C593.848389,495.181396 594.011780,495.007050 594.098450,494.924774 
z"/>
<path fill="#131313" opacity="1.000000" stroke="none" 
	d="
M643.452759,492.424133 
	C643.525146,492.375153 643.548340,492.570465 643.548340,492.570465 
	C643.548340,492.570465 643.380371,492.473145 643.452759,492.424133 
z"/>
<path fill="#131313" opacity="1.000000" stroke="none" 
	d="
M639.557739,489.466553 
	C639.596680,489.530365 639.518738,489.402771 639.557739,489.466553 
z"/>
<path fill="#131313" opacity="1.000000" stroke="none" 
	d="
M593.580322,485.450012 
	C593.648682,485.549530 593.384583,485.591644 593.384583,485.591644 
	C593.384583,485.591644 593.512024,485.350525 593.580322,485.450012 
z"/>
<path fill="#131313" opacity="1.000000" stroke="none" 
	d="
M639.480713,478.462677 
	C639.519836,478.441742 639.441650,478.483612 639.480713,478.462677 
z"/>
<path fill="#131313" opacity="1.000000" stroke="none" 
	d="
M610.551758,478.453979 
	C610.586121,478.511871 610.517456,478.396057 610.551758,478.453979 
z"/>
<path fill="#141414" opacity="1.000000" stroke="none" 
	d="
M590.422852,253.546875 
	C590.373474,253.474091 590.570190,253.450836 590.570190,253.450836 
	C590.570190,253.450836 590.472290,253.619659 590.422852,253.546875 
z"/>
<path fill="#131313" opacity="1.000000" stroke="none" 
	d="
M636.956482,475.909668 
	C636.712219,475.909729 636.858276,475.484833 636.948730,475.279358 
	C637.226746,475.266418 637.414307,475.459015 637.601929,475.651611 
	C637.468201,475.737610 637.334473,475.823578 636.956482,475.909668 
z"/>
<path fill="#131313" opacity="1.000000" stroke="none" 
	d="
M606.578735,475.451355 
	C606.635559,475.536163 606.411682,475.568817 606.411682,475.568817 
	C606.411682,475.568817 606.521912,475.366516 606.578735,475.451355 
z"/>
<path fill="#131313" opacity="1.000000" stroke="none" 
	d="
M588.478760,474.473511 
	C588.521912,474.449738 588.435547,474.497253 588.478760,474.473511 
z"/>
</svg>